<?xml version="1.0" encoding="utf-8"?>
<!-- Generator: Adobe Illustrator 23.0.1, SVG Export Plug-In . SVG Version: 6.00 Build 0)  -->
<svg version="1.1" id="Слой_1" xmlns="http://www.w3.org/2000/svg" xmlns:xlink="http://www.w3.org/1999/xlink" x="0px" y="0px"
	 viewBox="0 0 745.5 709.65" style="enable-background:new 0 0 745.5 709.65;" xml:space="preserve">
<style type="text/css">
	.st0{fill:#D11C33;}
	.st1{fill:#0D4466;}
	.st2{fill:#47B699;}
	.st3{fill:#3DBBCA;}
	.st4{fill:#174555;}
	.st5{fill:#57B2AE;}
	.st6{fill:#EF7A22;}
	.st7{fill:#206788;}
	.st8{fill:#F28E35;}
	.st9{fill:#8C1740;}
	.st10{fill:#9AD4DF;}
	.st11{fill:#78132F;}
	.st12{fill:#FFFFFF;}
	.st13{fill-rule:evenodd;clip-rule:evenodd;fill:#FFFFFF;}
	.st14{fill:#00484C;}
	.st15{fill:#263571;}
	.st16{fill-rule:evenodd;clip-rule:evenodd;fill:#263571;}
	.st17{fill-rule:evenodd;clip-rule:evenodd;fill:#00484C;}
</style>
<path class="st0" d="M110.12,79.69C45.55,145.49,5.45,235.37,4.52,334.62h230.05c0.89-35.73,15.26-68.11,38.21-92.25L110.12,79.69z"
	/>
<path class="st1" d="M377.06,707.15c99.25-0.93,189.13-41.03,254.93-105.59L469.31,438.88c-24.14,22.96-56.52,37.33-92.25,38.21
	V707.15z"/>
<path class="st2" d="M469.31,237.39L607.55,99.15C548,40.84,466.76,4.61,377.06,3.68v195.49
	C412.79,200.06,445.17,214.43,469.31,237.39z"/>
<path class="st3" d="M370.02,69.12V36.34c-80.69,0.92-153.76,33.5-207.39,85.91l23.18,23.18C233.5,98.95,298.38,70.05,370.02,69.12z
	"/>
<path class="st4" d="M277.77,237.39c24.14-22.96,56.52-37.33,92.25-38.21V69.12c-71.64,0.92-136.52,29.83-184.21,76.3L277.77,237.39
	z"/>
<path class="st5" d="M742.55,334.62c-0.93-99.25-41.03-189.13-105.59-254.93l-92.77,92.77c40.83,42.05,66.25,99.13,67.17,162.16
	H742.55z"/>
<path class="st6" d="M139.53,577.12c59.54,58.31,140.78,94.54,230.49,95.47v-96.64c-63.02-0.92-120.1-26.34-162.15-67.17
	L139.53,577.12z"/>
<path class="st7" d="M512.5,334.62h98.86c-0.92-63.02-26.33-120.11-67.17-162.16l-69.91,69.91
	C497.24,266.51,511.61,298.89,512.5,334.62z"/>
<path class="st8" d="M277.77,438.88l-69.9,69.9c42.05,40.83,99.13,66.25,162.15,67.17V477.1
	C334.29,476.21,301.91,461.84,277.77,438.88z"/>
<path class="st9" d="M4.52,341.66c0.93,99.25,41.03,189.13,105.59,254.93l46.53-46.53c-52.66-53.89-85.39-127.32-86.32-208.4H4.52z"
	/>
<path class="st10" d="M708,341.66h-31.24c-0.92,81.08-33.66,154.51-86.32,208.4l22.09,22.09C670.84,512.6,707.07,431.37,708,341.66z
	"/>
<path class="st11" d="M234.58,341.66H70.33c0.92,81.08,33.66,154.51,86.32,208.4l116.14-116.14
	C249.83,409.77,235.46,377.39,234.58,341.66z"/>
<path class="st3" d="M512.5,341.66c-0.89,35.73-15.26,68.11-38.21,92.25l116.15,116.15c52.66-53.89,85.4-127.32,86.32-208.4H512.5z"
	/>
<g>
	<path class="st12" d="M413.32,115.42v32.5c5.22-1.11,12.33-4.23,20.18-8.26v-24.24H413.32z"/>
	<path class="st12" d="M413.32,168.42v3.2h20.18v-8.46C426.58,165.59,419.72,167.48,413.32,168.42L413.32,168.42z"/>
	<path class="st12" d="M441.38,160.19v11.44h20.18v-20.67C455.3,154.13,448.41,157.36,441.38,160.19L441.38,160.19z"/>
	<path class="st12" d="M469.44,171.62h20.18v-36.54c0,0-8.25,5.32-20.18,11.75V171.62z"/>
	<path class="st12" d="M441.38,98.18v37.22c6.75-3.77,13.69-7.95,20.18-12.01V98.18H441.38z"/>
	<path class="st12" d="M489.63,79.48h-20.18v38.88c9.52-6.15,17.15-11.35,20.18-13.44V79.48z"/>
	<path class="st12" d="M495.64,97.9l3.63,6.03c0,0-31.97,20.67-39.37,25.33c-7.4,4.66-29.31,19.07-43.97,22.3
		c-14.66,3.26-16.07-0.97-16.07-5.63c0-4.66,9.72-14.24,9.72-14.24v-3.92c0,0-6.29,6.35-10.8,12.38c-1.39,1.89-2.61,3.75-3.4,5.37
		c-2.83,5.77-4.14,12.09-1.28,15.18c2.98,3.2,6.49,4.77,19.22,3.2c12.93-1.6,32.06-9.49,43.34-15.27
		c11.28-5.77,51.48-29.96,51.48-29.96l4,6.63l9.58-24.87L495.64,97.9z"/>
</g>
<g>
	<path class="st13" d="M448.79,568.73c4.54-0.94,9.13-0.77,13.46,0.34l4.31-9.83l9.24,4.12l-4.34,9.83c3.71,2.49,6.92,5.8,9.3,9.83
		l9.95-3.86l3.63,9.49l-9.95,3.86c0.94,4.6,0.77,9.23-0.34,13.61l9.75,4.35l-4.08,9.32l-9.75-4.37c-2.47,3.75-5.75,6.98-9.75,9.38
		l3.83,10.03l-9.41,3.66l-3.83-10.03c-4.56,0.94-9.16,0.77-13.49-0.34l-4.31,9.83l-9.24-4.12l4.34-9.83
		c-3.71-2.49-6.92-5.83-9.3-9.83l-9.95,3.86l-3.63-9.49l9.95-3.89c-0.94-4.57-0.77-9.21,0.34-13.58l-9.75-4.35l4.08-9.32l9.75,4.37
		c2.47-3.75,5.78-6.98,9.78-9.38l-3.86-10.03l9.41-3.66L448.79,568.73z M450.2,586.6c6.55-2.54,13.92,0.77,16.47,7.38
		c2.52,6.6-0.74,14.04-7.31,16.58c-6.55,2.57-13.92-0.74-16.44-7.35C440.37,596.6,443.66,589.17,450.2,586.6L450.2,586.6z"/>
	<path class="st13" d="M508.74,543.51c3.06-0.43,6.09-0.14,8.93,0.77l3.23-6.38l5.95,3.12l-3.23,6.35c2.35,1.8,4.37,4.12,5.75,6.89
		l6.77-2.17l2.04,6.43l-6.77,2.17c0.45,3.09,0.17,6.15-0.74,9.01l6.29,3.29l-3.06,6l-6.32-3.29c-1.76,2.4-4.08,4.4-6.83,5.83
		l2.18,6.8l-6.41,2.06l-2.15-6.8c-3.06,0.43-6.09,0.14-8.9-0.77l-3.26,6.38l-5.95-3.12l3.26-6.35c-2.38-1.8-4.37-4.12-5.78-6.89
		l-6.75,2.17l-2.04-6.43l6.75-2.17c-0.45-3.09-0.17-6.15,0.74-9.01l-6.29-3.29l3.06-6l6.32,3.29c1.76-2.4,4.08-4.4,6.83-5.83
		l-2.15-6.8l6.38-2.06L508.74,543.51z M508.99,555.43c4.45-1.43,9.21,1.03,10.63,5.52c1.42,4.49-1.05,9.29-5.5,10.72
		c-4.45,1.43-9.18-1.03-10.63-5.52C502.08,561.67,504.54,556.86,508.99,555.43L508.99,555.43z"/>
	<path class="st13" d="M460.64,556.32c0,0,10.74-21.67,12.27-21.98c3.12-0.66,9.47,3.69,12.16,4.75c0,0-0.68-10.29-10.43-13.75
		c-9.78-3.46-18.54,5.15-20.55,5.55c-2.01,0.4-8.53,2.74-14.23,1.43c-5.67-1.32-30.39-5.26-33.76-3.4
		c-3.34,1.86-3.66,7.35-0.11,9.26c3.51,1.94,24.75,3.14,29.4,3.95c4.65,0.77,11.11,1.94,15.99,5.52
		C456.27,551.23,460.64,556.32,460.64,556.32L460.64,556.32z M465.96,534.79c-2.1-1.66-5.3-0.71-7.17,2.12
		c-1.87,2.8-1.67,6.4,0.43,8.06c2.1,1.66,5.3,0.71,7.14-2.12C468.23,540.05,468.06,536.45,465.96,534.79L465.96,534.79z
		 M409.04,530.88c1.28,0,2.3,1.03,2.3,2.32s-1.02,2.32-2.3,2.32s-2.3-1.03-2.3-2.32S407.77,530.88,409.04,530.88L409.04,530.88z"/>
	<path class="st13" d="M467.18,546c0,0,10.6,5.57,10.94,5.97c0.31,0.4-3.09,2.83-6.41,3.43c-3.34,0.57-8.65-1.14-8.65-1.14
		L467.18,546z"/>
	<path class="st13" d="M465.34,536.14c-1.42-1.43-3.8-0.89-5.33,1.2c-1.53,2.09-1.62,4.89-0.2,6.29c1.42,1.43,3.8,0.89,5.33-1.2
		C466.67,540.34,466.79,537.54,465.34,536.14L465.34,536.14z"/>
</g>
<g>
	<path class="st13" d="M179.8,411.99c-6.55-1.34-12.95,2.94-14.29,9.55c-1.33,6.63,2.89,13.09,9.47,14.44s12.98-2.94,14.31-9.55
		C190.63,419.79,186.38,413.33,179.8,411.99L179.8,411.99z M178.81,417.05c-3.83-0.8-7.51,1.69-8.31,5.52
		c-0.77,3.83,1.7,7.58,5.5,8.38c3.8,0.77,7.51-1.72,8.28-5.55C185.08,421.57,182.61,417.82,178.81,417.05L178.81,417.05z"/>
	<path class="st13" d="M190.35,397.49c0.96,0.2,1.9-0.43,2.1-1.4c0.2-0.97-0.43-1.94-1.39-2.14l-2.72-0.54l-19.22-3.95l-1.79-0.37
		c-0.96-0.2-1.93,0.43-2.13,1.43c-0.17,0.97,0.45,1.94,1.42,2.14l1.13,0.23l-3.63,8.98c0,0-2.55,0-6.09,0.03l1.84-9.15
		c0,0,0.17-2.03-2.07-3.26c-2.24-1.2-3.17-0.46-3.37,0.34c-0.2,0.8,0.06,1.37,0.74,1.74s1.81,0.37,1.7,1.06
		c-0.09,0.6-1.39,7-1.84,9.29c-7.29,0.06-16.44,0.26-17.49,0.77c-1.81,0.91-2.27,5.92-2.27,5.92s6.94-1.83,11.74,3.12
		c4.82,4.95,2.81,10.18,2.81,10.18l12.39,2.54c-0.11-7.15,3.88-13.87,10.77-15.75c6.92-1.86,13.1,1.89,15.05,4.49
		c1.98,2.57,2.32,4.6,3.09,5.06c0.74,0.49,2.04-0.26,2.35-1.06c0.34-0.8-0.23-2.03-1.73-4.46c-1.53-2.4-3.12-3.97-3.12-3.97
		l-0.23-11.66L190.35,397.49z M185.02,397.29l-13.95-2.86l-4.42,13.41c0,0,6.63-5.95,18.4-1.52L185.02,397.29z"/>
	<path class="st13" d="M102.96,483.37c0,0,22.31-31.7,57.34-39.88c0,0-29.88,14.38-43.57,44.83c7.09,1.49,10.89,1.94,18.48,1.6
		c0,0,9.95-29.87,31.1-43.8c-9.75,15.07-16.02,41.11-16.02,41.11c8.08-2.57,12.78-5.23,19.02-9.43c-0.09-13.81,1.42-23.56,3.8-30.25
		c4.76,7.63,6.55,20.9,6.55,20.9s5.36-6.23,7.99-11.01c-0.17-4.32-5.9-11.55-13.35-14.47c-31.97-11.86-74.1-7.83-103.97,3.54
		c1.84,5.35,3.94,8.98,6.94,14.04c24.35-15.35,52.36-19.33,75.91-19.33c-9.61,1.26-20.49,3.69-36,11.69
		c-15.51,7.98-28.94,20.44-28.94,20.44C93.15,477.68,96.52,480.14,102.96,483.37L102.96,483.37z"/>
	<path class="st13" d="M91.56,387.43c1.73,0.43,3.03,2.94,3.03,5.97c0,2.32-0.77,4.35-1.9,5.35v1.77c0.31-0.43,0.68-0.86,1.11-1.29
		c2.13-2.14,4.82-2.97,6.32-2.06c0.91,1.52,0.06,4.23-2.07,6.38c-1.7,1.74-3.8,2.63-5.36,2.4v3.57c0.31-0.46,0.68-0.89,1.11-1.32
		c2.13-2.14,4.82-2.97,6.32-2.06c0.91,1.52,0.06,4.23-2.07,6.38c-1.7,1.74-3.8,2.63-5.36,2.4v3.89c0.31-0.46,0.68-0.89,1.11-1.29
		c2.13-2.14,4.82-3,6.32-2.09c0.91,1.52,0.06,4.23-2.07,6.38c-1.7,1.74-3.8,2.63-5.36,2.4v7.63h-2.27v-7.63
		c-1.53,0.23-3.63-0.66-5.36-2.4c-2.13-2.14-2.95-4.86-2.04-6.38c1.5-0.91,4.2-0.06,6.32,2.09c0.4,0.4,0.77,0.83,1.08,1.29v-3.89
		c-1.53,0.23-3.63-0.66-5.36-2.4c-2.13-2.14-2.95-4.86-2.04-6.38c1.5-0.91,4.2-0.09,6.32,2.06c0.4,0.43,0.77,0.86,1.08,1.32v-3.57
		c-1.53,0.23-3.63-0.66-5.36-2.4c-2.13-2.14-2.95-4.86-2.04-6.38c1.5-0.91,4.2-0.09,6.32,2.06c0.4,0.43,0.77,0.86,1.08,1.29v-1.77
		c-1.11-1-1.87-3.03-1.87-5.35C88.56,390.38,89.86,387.86,91.56,387.43L91.56,387.43z"/>
	<rect x="98.02" y="382.49" class="st13" width="1.96" height="9.58"/>
	<rect x="90.85" y="375.48" class="st13" width="1.98" height="9.58"/>
	<rect x="83.71" y="382.49" class="st13" width="1.98" height="9.58"/>
	<path class="st13" d="M116.73,387.43c1.7,0.43,3.03,2.94,3.03,5.97c0,2.32-0.77,4.35-1.9,5.35v1.77c0.31-0.43,0.68-0.86,1.11-1.29
		c2.13-2.14,4.79-2.97,6.32-2.06c0.91,1.52,0.06,4.23-2.07,6.38c-1.73,1.74-3.83,2.63-5.36,2.4v3.57c0.31-0.46,0.68-0.89,1.11-1.32
		c2.13-2.14,4.79-2.97,6.32-2.06c0.91,1.52,0.06,4.23-2.07,6.38c-1.73,1.74-3.83,2.63-5.36,2.4v3.89c0.31-0.46,0.68-0.89,1.11-1.29
		c2.13-2.14,4.79-3,6.32-2.09c0.91,1.52,0.06,4.23-2.07,6.38c-1.73,1.74-3.83,2.63-5.36,2.4v7.63h-2.27v-7.63
		c-1.53,0.23-3.63-0.66-5.36-2.4c-2.13-2.14-2.98-4.86-2.07-6.38c1.53-0.91,4.22-0.06,6.35,2.09c0.4,0.4,0.77,0.83,1.08,1.29v-3.89
		c-1.53,0.23-3.63-0.66-5.36-2.4c-2.13-2.14-2.98-4.86-2.07-6.38c1.53-0.91,4.22-0.09,6.35,2.06c0.4,0.43,0.77,0.86,1.08,1.32v-3.57
		c-1.53,0.23-3.63-0.66-5.36-2.4c-2.13-2.14-2.98-4.86-2.07-6.38c1.53-0.91,4.22-0.09,6.35,2.06c0.4,0.43,0.77,0.86,1.08,1.29v-1.77
		c-1.13-1-1.9-3.03-1.9-5.35C113.7,390.38,115.03,387.86,116.73,387.43L116.73,387.43z"/>
	<rect x="123.17" y="382.49" class="st13" width="1.98" height="9.58"/>
	<rect x="116.02" y="375.48" class="st13" width="1.98" height="9.58"/>
	<rect x="108.88" y="382.49" class="st13" width="1.98" height="9.58"/>
	<path class="st13" d="M140.35,411.22c-4.65-0.94-9.16,2.09-10.12,6.78c-0.94,4.69,2.07,9.23,6.72,10.18
		c4.65,0.97,9.16-2.06,10.12-6.75C148,416.73,144.99,412.19,140.35,411.22L140.35,411.22z M139.64,414.79
		c-2.69-0.54-5.3,1.2-5.87,3.92c-0.54,2.72,1.19,5.35,3.88,5.92c2.69,0.54,5.33-1.2,5.87-3.92S142.33,415.33,139.64,414.79
		L139.64,414.79z"/>
</g>
<path class="st12" d="M165.53,231.52c-3.46,3.09-6.86,5.03-10.91,6.38c-4.05,1.34-6.69,1.52-8.96,2.66
	c-1.64,0.86-3.37,2.34-4.2,4.32c-0.65,1.6-0.82,3.54-0.82,3.54l-4.42-1.94c0,0-0.62-1.2-0.82-1.6c-0.91-1.94-2.55-3.46-4.2-4.32
	c-2.27-1.14-4.9-1.32-8.96-2.66c-4.05-1.34-7.46-3.29-10.91-6.38c-3.51-3.17-5.58-8.03-5.58-8.03h32.68h32.68
	C171.12,223.48,169.05,228.34,165.53,231.52L165.53,231.52z M166.47,250.76c-1.56,2.8-4.37,5.12-7.97,6.18
	c-3.63,1.06-8.5,0.71-11.25,0.11c-2.78-0.63-13.15-4.52-15.48-5.55c-2.3-1.03-9.55-3.66-12.81-2.89c-3.26,0.8-5.61,3.06-4.96,6.43
	c0.65,3.34,3.09,4.8,6.77,5.72c3.66,0.91,14.83,1.97,14.83,1.97l0.03,3.63c0,0-11.2,0.29-18.4-1.74c-7.2-2.03-8.73-6.03-9.27-8.32
	c-0.54-2.29-0.17-5.89,0.74-7.6c0.91-1.69,4.03-6.18,10.63-5.92c6.63,0.23,10.6,2.09,14.2,3.63c3.63,1.57,10.12,4.2,12.9,4.77
	c2.75,0.54,8.19,0.71,10.57-1.43c2.44-2.17,2.83-3.92,2.75-6.12c-0.08-2.17-0.88-5-1.87-5.8c0,0,4.03-1.89,6.86-4.12
	c0,0,2.66,3.75,3.2,6.98C168.45,243.89,168.05,247.98,166.47,250.76L166.47,250.76z M156.83,285.58H120.6
	c-0.31-1.63,0.65-2.17,1.28-2.14c2.07,0.17,4.76,0.14,6.72-0.14c2.1-0.29,4.37-1.74,4.37-1.74s2.55,0.54,4.88,0.54
	c2.72,0,5.95-0.77,5.95-0.77s2.81,1.66,4.88,2.06c2.18,0.4,5.53-0.29,6.94,0.09S156.83,285.58,156.83,285.58L156.83,285.58z
	 M136.67,277.31V254.7l3.94,1.57v20.55L136.67,277.31z M121,273.23c0.65,0.17,3.94,2.4,6.26,3.37c2.3,0.97,5.61,1.77,9.21,1.8
	c3.57,0,7.11-0.97,8.67-1.94c1.53-0.94,3.09-2.23,3.03-4.37c-0.06-2.14-1.79-3.6-3.74-4.29c-1.96-0.66-2.69-0.69-2.69-0.69
	l-0.08-3.57c0,0,3.91,0.63,6.21,1.77c2.32,1.17,4.08,2.8,4.62,4.26c0.57,1.49,0.71,4.32-0.54,5.95c-1.11,1.4-3.6,3.46-7.63,4.43
	c-4.05,1-7.34,0.97-9.64,0.74c-2.27-0.23-7.31-1.46-9.86-3.2c-2.55-1.74-3.6-2.63-4.31-3.89C120.43,273.45,120.35,273.03,121,273.23
	L121,273.23z M115.16,197.09c3.09-4.83,8.67-6.83,11.82-7.49c3.15-0.69,8.42-0.4,11.42,0.17s5.64,2.63,6.63,3.57
	c0.99,0.97,2.89,5.23,3.34,5.97c0.43,0.77,2.89,4.06,3.83,5.23c1.16,1.4,0.03,2.74-1.05,3.03c-1.08,0.31-2.92,0.29-4.54-0.31
	c-1.64-0.63-5.36-2.83-5.36-2.83c-0.17,0.29-0.17,0.77-0.06,1.32c0.77,0.74,1.81,1.69,2.75,2.4c0.85,0.63,2.95,2.09,3.46,2.66
	c0.48,0.6,1.9,2.09,1.76,3.92c-0.11,1.66-0.88,3.2-0.88,3.2s0.31-2.66,0-3.86c-0.28-1.17-1.5-2-1.5-2s0.34,2.52-0.37,3.8
	c-0.54,0.97-1.7,2.43-4.14,2.37c0,0,2.61-0.83,3.23-2.69c0.43-1.37,0.4-4-1.19-5.6c-0.82-0.83-2.01-2.12-2.81-2.97
	c0.31,1.11,0.74,2.26,0.65,2.77c-0.2,1.03-1.76,0.86-2.64,0.37c-0.88-0.51-2.01-3.43-2.3-3.97c-0.31-0.54-1.67-2-2.32-2.92
	c-0.62-0.91-1.05-2.34-1.25-3.37c-0.2-1.03-1.76-2.32-3.15-3c-1.39-0.69-3.71-0.29-4.96,0.03c-1.25,0.31-2.92,1.46-4.48,3.23
	c-1.59,1.77-2.64,4.8-2.69,6.63c-0.06,1.8-0.62,5.17,2.47,9.26c3.09,4.09,10.74,6.52,10.74,6.52l-14.14-0.23c0,0-3.4-4.37-4.34-6.35
	c-0.94-2-1.64-5.03-1.67-8.29C111.42,204.44,112.07,201.93,115.16,197.09L115.16,197.09z M196.23,209.04H163.4v-33.13
	c0-1-0.82-1.83-1.81-1.83h-52.64c-0.99,0-1.81,0.83-1.81,1.83v33.13H74.31c-1.02,0-1.81,0.8-1.81,1.8v53.09c0,1,0.79,1.83,1.81,1.83
	h32.83v33.13c0,1,0.82,1.8,1.81,1.8h52.64c0.99,0,1.81-0.8,1.81-1.8v-33.13h32.83c1.02,0,1.81-0.83,1.81-1.83v-53.09
	C198.04,209.85,197.25,209.04,196.23,209.04L196.23,209.04z"/>
<g>
	<path class="st12" d="M279.45,530.85c-1.93-1.77-3.94-3.29-5.98-4.63v11.92l-1.84-1.72l-1.87,1.72v-14.12
		c-16.21-8.78-34.19-7.46-34.19-7.46v70.84c0,0,27.86-0.09,43.88,15.84V530.85z"/>
	<path class="st12" d="M280.05,607.09c21.8-14.21,50.51-12.95,50.51-12.95v-69.93h-2.66l0.09,67.1c0,0-27.67-1.46-47.93,14.24
		c-20.27-15.69-47.91-14.24-47.91-14.24l0.06-67.1h-2.66v69.93C229.54,594.14,258.28,592.89,280.05,607.09L280.05,607.09z"/>
	<path class="st12" d="M334.11,532.59v65.95c0,0-16.5,0.06-26.22,1.6c-14.63,2.32-26.53,8.69-26.53,8.69c-0.54,0.26-1.9,0.29-2.61,0
		c0,0-11.91-6.38-26.53-8.69c-9.72-1.54-26.19-1.6-26.19-1.6v-65.95h-3.03v68.9h3.03c25.68,0,45.84,5.75,46.57,6.18
		c1.28,0.77,2.01,1.74,2.95,2.32c1.39,0.86,7.63,0.86,9.04,0c0.91-0.57,1.64-1.54,2.95-2.32c0.74-0.43,20.86-6.18,46.57-6.18h3
		v-68.9H334.11z"/>
	<path class="st12" d="M324.7,516.56c0,0-26.19-1.94-43.88,14.29v72.39c15.99-15.92,43.88-15.84,43.88-15.84V516.56z"/>
</g>
<g>
	<path class="st13" d="M578.39,197.5c11.59,0,21,9.49,21,21.18c0,0.97-0.09,1.94-0.2,2.92l44.42,45.37v0.03
		c4.85,4.95,4.79,12.89-0.11,17.78s-12.78,4.83-17.63-0.11l0,0l-44.14-45.06c-1.11,0.17-2.21,0.26-3.34,0.26
		c-11.62,0-21-9.49-21-21.18c0-2.74,0.51-5.37,1.45-7.78l12.39,12.86c1.79,1.83,4.71,1.89,6.52,0.09l5.3-5.2
		c1.81-1.77,1.84-4.72,0.09-6.55l-12.61-13.09C572.94,198.04,575.61,197.5,578.39,197.5L578.39,197.5z M635.05,269.97
		c3.49,0,6.35,2.86,6.35,6.38c0,3.54-2.86,6.4-6.35,6.4s-6.35-2.86-6.35-6.4C628.7,272.83,631.56,269.97,635.05,269.97
		L635.05,269.97z"/>
	<path class="st13" d="M644.18,200.5c-4.05-4.03-10.54-3.97-14.51,0.09c-0.06,0.06-0.11,0.11-0.17,0.17l-22.82,22.96l3.43,3.52
		l24.46-24.56c0.17-0.17,0.45-0.17,0.62,0l1.3,1.32c0.17,0.17,0.17,0.46,0,0.63L612,229.17l3.91,3.97l24.49-24.61
		c0.2-0.17,0.45-0.17,0.62,0l1.3,1.32c0.17,0.17,0.17,0.46,0,0.63l-24.52,24.61l3.46,3.54l22.82-23.36
		c0.06-0.06,0.11-0.11,0.17-0.17C648.23,211.05,648.2,204.5,644.18,200.5L644.18,200.5z"/>
	<path class="st13" d="M587.88,252.41l4.99,5.03l-13.89,13.92c0,0,0.6,4.09-0.91,5.77l-16.67,11.49l-4.37-4.66l10.74-16.01
		c1.7-2.46,6.21-1.72,6.21-1.72L587.88,252.41z"/>
</g>
<g>
	<path class="st12" d="M590.44,373.05c7.11,0,13.15,6.83,17.12,17.84c0.09,0.2,0.17,0.43,0.23,0.63c-3.4,0.54-6.49,1.72-8.45,2.57
		l-0.09-0.17c-2.64-7.38-5.81-11.92-8.82-11.92s-6.15,4.55-8.82,11.92c-3.17,8.75-5.1,20.9-5.1,34.45c0,5.92,0.37,11.61,1.05,16.84
		c-3.63,1.52-6.86,2.4-8.53,2.8c-0.91-6.09-1.39-12.72-1.39-19.64c0-14.55,2.15-27.82,5.67-37.48
		C577.29,379.88,583.33,373.05,590.44,373.05L590.44,373.05z M612.02,446.18c-3.06,21.81-11.57,37.48-21.57,37.48
		c-7.11,0-13.15-6.8-17.12-17.84c-0.14-0.37-0.28-0.74-0.4-1.11c2.83-0.74,6.66-2.06,8.42-2.69c0.09,0.26,0.17,0.51,0.28,0.77
		c2.66,7.38,5.81,11.95,8.82,11.95c5.1,0,9.55-9.09,11.96-22.67C605.81,450.26,609.83,447.66,612.02,446.18L612.02,446.18z"/>
	<path class="st12" d="M542.96,456.01c-3.57-6.23-0.74-14.89,6.75-23.87c3.69-4.43,8.53-9.06,14.32-13.55
		c-0.2,3-0.48,8.26-0.09,11.61c-2.89,2.6-5.41,5.17-7.48,7.66c-4.99,6.03-7.34,11.06-5.84,13.69c1.5,2.63,7,3.09,14.68,1.74
		c9.07-1.63,20.49-6,32.12-12.78c11.62-6.78,21.09-14.55,27.01-21.67c4.99-6,7.34-11.04,5.84-13.67c-2.49-4.37-12.19-3.83-24.69,0.6
		c-1.96-1.29-5.47-3.46-9.89-5.49c19.96-7.92,37.3-8.23,42.24,0.4c3.57,6.23,0.74,14.89-6.75,23.9
		c-6.55,7.89-16.87,16.41-29.34,23.67c-12.5,7.26-24.94,12.01-35.01,13.78C555.38,464.1,546.51,462.24,542.96,456.01L542.96,456.01z
		"/>
	<path class="st12" d="M637.75,456.33c-3.57,6.23-12.42,8.09-23.87,6.03c-0.48-0.09-0.94-0.17-1.42-0.26c1.22-3,1.87-6.38,2.24-8.63
		c0.23,0.06,0.48,0.09,0.71,0.14c7.68,1.34,13.15,0.89,14.68-1.74c1.5-2.63-0.85-7.69-5.84-13.69c-0.26-0.29-0.51-0.6-0.77-0.89
		c1.64-1.46,3.91-3.43,6.66-5.86c0.28,0.34,0.57,0.69,0.85,1C638.49,441.43,641.33,450.09,637.75,456.33L637.75,456.33z
		 M550.28,425.28c-7.74-9.38-10.91-18.33-7.51-24.27c3.57-6.23,12.44-8.06,23.9-6.03c0.37,0.06,0.74,0.14,1.13,0.2
		c-0.62,2-1.3,4.92-1.67,8.75c-0.34-0.06-0.68-0.11-1.02-0.17c-7.65-1.37-13.15-0.89-14.66,1.72c-1.81,3.14,0.45,8.29,5.61,14.18
		C553.79,421.56,551.55,423.88,550.28,425.28L550.28,425.28z M610.94,425.68c-4.11-3.17-8.7-6.26-13.72-9.18
		c-5.05-2.94-10.03-5.43-14.83-7.43c0.17-1.94,0.62-5.15,1.76-8.92c5.64,2.29,11.57,5.17,17.52,8.61c5.84,3.4,11.2,7.09,15.9,10.83
		C615.67,421.33,613.26,423.56,610.94,425.68L610.94,425.68z"/>
	<path class="st13" d="M590.44,436.91c4.68,0,8.5-3.83,8.5-8.55c0-4.72-3.83-8.58-8.5-8.58s-8.5,3.86-8.5,8.58
		C581.94,433.08,585.77,436.91,590.44,436.91L590.44,436.91z"/>
</g>
<g>
	<path class="st13" d="M310.28,107.94c0,0-15.05-16.44-36.99-14.58c-21.91,1.86-36.03,21.27-37.22,33.59s-0.34,22.84,14.46,39.94
		c14.83,17.1,47.79,27.13,60.94,17.81c13.15-9.35,6.63-17.81,3.32-22.13c-3.32-4.32-2.01-11.35,2.01-18.41
		c4.03-7.06,2.49-16.27,1.42-20.21l-24.01,21.56c0,0,1.84,10.52-12.39,13.47l-0.6,0.23c0.11,0.57,0.17,1.2,0.17,1.83
		c0,5.23-4.2,9.46-9.38,9.46c-5.19,0-9.38-4.23-9.38-9.46c0-4.52,3.12-8.29,7.29-9.26l-0.03-0.43c0,0,0.28-13.21,14.4-15.24
		L310.28,107.94z M300.59,160.52c5.19,0,9.38,4.23,9.38,9.46s-4.2,9.49-9.38,9.49s-9.41-4.26-9.41-9.49S295.4,160.52,300.59,160.52
		L300.59,160.52z M255.06,125.55c5.19,0,9.41,4.23,9.41,9.46s-4.22,9.49-9.41,9.49s-9.38-4.26-9.38-9.49
		S249.88,125.55,255.06,125.55L255.06,125.55z M272.47,101.2c5.19,0,9.38,4.23,9.38,9.46c0,5.23-4.2,9.49-9.38,9.49
		c-5.19,0-9.41-4.26-9.41-9.49C263.06,105.43,267.28,101.2,272.47,101.2L272.47,101.2z"/>
	<path class="st13" d="M273.74,162.86c-5.95-10.72,2.15-25.24,12.93-22.76l7.82-11.78l7.4,7.35l-11.57,7.95c0,0,0.82,6.12-3.54,8.98
		C282.39,155.46,273.69,154.8,273.74,162.86L273.74,162.86z"/>
	<path class="st13" d="M297.33,126.24c0,0,27.61-29.42,33.31-34.08c5.7-4.66,16.58-13.75,19.19-12.32
		c2.61,1.46-7.57,14.84-11.62,19.27c-4.03,4.4-34.13,34.05-34.13,34.05L297.33,126.24z"/>
</g>
<g>
	<path class="st14" d="M373.54,207.16c35.85,0,68.32,14.66,91.84,38.36c23.5,23.71,38.04,56.46,38.04,92.62
		s-14.54,68.91-38.04,92.62c-23.51,23.7-55.98,38.36-91.84,38.36s-68.32-14.66-91.84-38.36c-23.5-23.71-38.04-56.46-38.04-92.62
		s14.54-68.91,38.04-92.62C305.22,221.82,337.69,207.16,373.54,207.16L373.54,207.16z M462.09,248.83
		c-22.65-22.87-53.97-37.01-88.55-37.01c-34.59,0-65.89,14.14-88.55,37.01c-22.67,22.85-36.7,54.41-36.7,89.3
		c0,34.87,14.02,66.46,36.7,89.3c22.65,22.87,53.95,36.99,88.55,36.99c34.57,0,65.89-14.12,88.55-36.99
		c22.67-22.85,36.68-54.43,36.68-89.3C498.77,303.25,484.76,271.68,462.09,248.83L462.09,248.83z"/>
	<path class="st14" d="M373.54,230.81c29.39,0,56,12,75.25,31.43c19.27,19.41,31.17,46.25,31.17,75.89s-11.9,56.48-31.17,75.89
		c-19.25,19.43-45.86,31.43-75.25,31.43c-29.39,0-56-12-75.25-31.43c-19.27-19.41-31.19-46.25-31.19-75.89s11.92-56.48,31.19-75.89
		C317.54,242.81,344.15,230.81,373.54,230.81L373.54,230.81z M446.61,264.44c-18.69-18.85-44.54-30.53-73.07-30.53
		c-28.55,0-54.38,11.67-73.07,30.53c-18.69,18.85-30.27,44.9-30.27,73.69c0,28.77,11.58,54.84,30.27,73.69
		c18.69,18.85,44.52,30.53,73.07,30.53c28.53,0,54.38-11.67,73.07-30.53s30.27-44.92,30.27-73.69
		C476.88,309.35,465.3,283.3,446.61,264.44L446.61,264.44z"/>
	<path class="st15" d="M474.37,343.58v-10.88c0-0.64-0.48-1.16-1.09-1.2l-9.76-0.69c-0.25-3.07-0.63-6.1-1.17-9.09l9.22-3.2
		c0.59-0.21,0.92-0.83,0.77-1.43l-2.79-10.54c-0.17-0.6-0.77-0.98-1.38-0.87l-9.57,1.89c-1.03-2.89-2.2-5.73-3.5-8.49l8.11-5.5
		c0.5-0.35,0.67-1.04,0.36-1.58l-5.41-9.44c-0.31-0.54-0.98-0.75-1.53-0.48l-8.8,4.34c-1.72-2.53-3.58-4.96-5.53-7.27l6.41-7.45
		c0.42-0.48,0.38-1.18-0.06-1.62l-7.63-7.72c-0.44-0.44-1.15-0.46-1.61-0.06l-7.39,6.48c-2.3-1.99-4.71-3.84-7.21-5.6l4.29-8.86
		c0.29-0.56,0.08-1.23-0.46-1.54l-9.36-5.46c-0.54-0.31-1.22-0.15-1.57,0.37l-5.47,8.16c-2.72-1.29-5.53-2.47-8.4-3.51l1.86-9.65
		c0.13-0.62-0.25-1.23-0.84-1.39l-10.45-2.82c-0.59-0.17-1.22,0.17-1.42,0.75l-3.18,9.32c-2.97-0.54-5.97-0.95-9.03-1.18l-0.67-9.84
		c-0.04-0.64-0.55-1.12-1.19-1.12h-10.79c-0.63,0-1.15,0.48-1.19,1.12l-0.69,9.84c-3.04,0.23-6.05,0.64-9.01,1.18l-3.18-9.32
		c-0.21-0.58-0.82-0.93-1.42-0.75l-10.45,2.82c-0.59,0.15-0.98,0.77-0.86,1.39l1.88,9.65c-2.87,1.04-5.68,2.22-8.42,3.51l-5.45-8.16
		c-0.34-0.52-1.03-0.68-1.57-0.37l-9.36,5.46c-0.54,0.31-0.75,0.98-0.48,1.54l4.3,8.86c-2.51,1.76-4.92,3.61-7.21,5.6l-7.39-6.48
		c-0.48-0.41-1.17-0.39-1.61,0.06l-7.65,7.72c-0.44,0.44-0.46,1.14-0.06,1.62l6.43,7.45c-1.97,2.32-3.81,4.75-5.55,7.27l-8.78-4.34
		c-0.55-0.27-1.22-0.06-1.53,0.48L283.5,292c-0.31,0.54-0.15,1.23,0.36,1.58l8.09,5.5c-1.28,2.76-2.45,5.6-3.48,8.49l-9.57-1.89
		c-0.61-0.12-1.22,0.27-1.38,0.87l-2.79,10.54c-0.17,0.6,0.17,1.22,0.75,1.43l9.24,3.2c-0.54,2.99-0.94,6.02-1.17,9.09l-9.76,0.69
		c-0.63,0.04-1.11,0.56-1.11,1.2v10.88c0,0.64,0.48,1.16,1.11,1.2l9.76,0.68c0.23,3.09,0.63,6.12,1.17,9.11l-9.24,3.2
		c-0.57,0.19-0.92,0.83-0.75,1.43l2.79,10.54c0.15,0.6,0.77,0.98,1.38,0.85l9.57-1.87c1.03,2.89,2.2,5.73,3.48,8.47l-8.09,5.52
		c-0.52,0.35-0.67,1.04-0.36,1.58l5.41,9.44c0.31,0.54,0.98,0.75,1.53,0.46l8.78-4.32c1.74,2.53,3.58,4.96,5.55,7.27l-6.43,7.45
		c-0.4,0.46-0.38,1.18,0.06,1.62l7.65,7.7c0.44,0.44,1.13,0.48,1.61,0.06l7.39-6.46c2.3,1.97,4.71,3.84,7.21,5.58l-4.3,8.88
		c-0.27,0.56-0.06,1.23,0.48,1.54l9.36,5.46c0.54,0.31,1.22,0.14,1.57-0.37l5.45-8.18c2.74,1.31,5.55,2.49,8.42,3.53l-1.88,9.65
		c-0.11,0.62,0.27,1.22,0.86,1.39l10.45,2.82c0.59,0.15,1.21-0.17,1.42-0.77l3.18-9.3c2.97,0.54,5.97,0.93,9.01,1.18l0.69,9.84
		c0.04,0.62,0.55,1.1,1.19,1.1h10.79c0.63,0,1.15-0.48,1.19-1.1l0.67-9.84c3.06-0.25,6.07-0.64,9.03-1.18l3.18,9.3
		c0.19,0.6,0.82,0.93,1.42,0.77l10.45-2.82c0.59-0.17,0.98-0.77,0.84-1.39l-1.86-9.65c2.87-1.04,5.68-2.22,8.4-3.53l5.47,8.18
		c0.34,0.5,1.03,0.68,1.57,0.37l9.36-5.46c0.54-0.31,0.75-0.98,0.46-1.54l-4.29-8.88c2.51-1.74,4.92-3.61,7.21-5.58l7.39,6.46
		c0.46,0.42,1.17,0.39,1.61-0.06l7.63-7.7c0.44-0.44,0.48-1.16,0.06-1.62l-6.41-7.45c1.95-2.32,3.81-4.75,5.53-7.27l8.8,4.32
		c0.55,0.29,1.22,0.08,1.53-0.46l5.41-9.44c0.31-0.54,0.13-1.23-0.36-1.58l-8.11-5.52c1.3-2.74,2.47-5.58,3.5-8.47l9.57,1.87
		c0.61,0.14,1.21-0.25,1.38-0.85l2.79-10.54c0.15-0.6-0.17-1.23-0.77-1.43l-9.22-3.2c0.54-2.99,0.92-6.02,1.17-9.11l9.76-0.68
		C473.89,344.74,474.37,344.21,474.37,343.58L474.37,343.58z M374.23,417.5L374.23,417.5c-44.01,0.37-79.75-35.68-79.38-80.06
		c0.36-43.09,35.28-78.3,78-78.67c44.01-0.39,79.75,35.68,79.38,80.06C451.87,381.92,416.95,417.13,374.23,417.5L374.23,417.5z"/>
	<path class="st16" d="M319.07,378.06c12.84-0.27,39.32,5.5,54.41,19.37c-5.47-1.72-12.74-9.92-53.51-7.26L319.07,378.06z"/>
	<path class="st16" d="M428.01,378.06c-12.86-0.27-39.38,5.48-54.47,19.37c5.47-1.72,12.78-9.92,53.57-7.26L428.01,378.06z"/>
	<path class="st16" d="M312.55,360.62c21.08,0.95,49.73,16.46,60.92,30.95c-4-2.86-31.91-22.31-61.24-18.91L312.55,360.62z"/>
	<path class="st16" d="M434.54,360.62c-21.08,0.95-49.73,16.46-60.92,30.95c3.98-2.86,31.89-22.31,61.24-18.91L434.54,360.62z"/>
	<path class="st16" d="M303.59,340.55c21.08,0.95,51.74,19.53,69.87,45.4c-26.44-21.75-42.19-29.12-70.2-28.23L303.59,340.55z"/>
	<path class="st16" d="M443.49,340.55c-21.08,0.95-51.74,19.53-69.87,45.4c26.44-21.75,42.19-29.12,70.2-28.23L443.49,340.55z"/>
	<path class="st17" d="M373.64,361.99c3.35,0,6.08-2.76,6.08-6.12c0-3.38-2.74-6.14-6.08-6.14c-3.33,0-6.07,2.76-6.07,6.14
		C367.57,359.23,370.31,361.99,373.64,361.99L373.64,361.99z"/>
	<path class="st17" d="M395.18,342.98c3.46,0,6.29-2.86,6.29-6.35s-2.83-6.35-6.29-6.35s-6.29,2.86-6.29,6.35
		S391.72,342.98,395.18,342.98L395.18,342.98z"/>
	<path class="st17" d="M337.3,340.2c3.86,0,7.02-3.18,7.02-7.08s-3.16-7.06-7.02-7.06c-3.86,0-7.02,3.16-7.02,7.06
		S333.44,340.2,337.3,340.2L337.3,340.2z"/>
	<path class="st17" d="M376.79,322.31c5.45,0,9.89-4.48,9.89-9.98s-4.44-9.98-9.89-9.98s-9.89,4.48-9.89,9.98
		S371.34,322.31,376.79,322.31L376.79,322.31z"/>
	<path class="st17" d="M364.47,338.41c2.37,0,4.3-1.95,4.3-4.36c0-2.39-1.93-4.34-4.3-4.34c-2.39,0-4.32,1.95-4.32,4.34
		C360.15,336.46,362.08,338.41,364.47,338.41L364.47,338.41z"/>
	<path class="st17" d="M331.39,314.44c2.37,0,4.32-1.97,4.32-4.36c0-2.39-1.95-4.36-4.32-4.36s-4.32,1.97-4.32,4.36
		C327.07,312.47,329.02,314.44,331.39,314.44L331.39,314.44z"/>
	<path class="st17" d="M416.48,334.37c2.39,0,4.32-1.95,4.32-4.36c0-2.39-1.93-4.34-4.32-4.34c-2.37,0-4.3,1.95-4.3,4.34
		C412.17,332.42,414.1,334.37,416.48,334.37L416.48,334.37z"/>
	<path class="st17" d="M378.71,287.19c2.37,0,4.32-1.95,4.32-4.36c0-2.39-1.95-4.34-4.32-4.34c-2.37,0-4.32,1.95-4.32,4.34
		C374.38,285.25,376.34,287.19,378.71,287.19L378.71,287.19z"/>
	<path class="st17" d="M413.86,299.87c2.74,0,4.96-2.24,4.96-5c0-2.74-2.22-4.98-4.96-4.98c-2.72,0-4.94,2.24-4.94,4.98
		C408.92,297.63,411.14,299.87,413.86,299.87L413.86,299.87z"/>
	<path class="st17" d="M402.11,310.77c1.49,0,2.7-1.23,2.7-2.74c0-1.49-1.21-2.72-2.7-2.72c-1.47,0-2.7,1.23-2.7,2.72
		C399.41,309.54,400.63,310.77,402.11,310.77L402.11,310.77z"/>
	<path class="st17" d="M351.56,310.45c1.49,0,2.7-1.22,2.7-2.72c0-1.49-1.21-2.72-2.7-2.72c-1.47,0-2.7,1.23-2.7,2.72
		C348.86,309.23,350.09,310.45,351.56,310.45L351.56,310.45z"/>
	<path class="st17" d="M355.31,288.8c1.88,0,3.41-1.56,3.41-3.45c0-1.91-1.53-3.45-3.41-3.45c-1.89,0-3.42,1.54-3.42,3.45
		C351.88,287.23,353.41,288.8,355.31,288.8L355.31,288.8z"/>
	<polygon class="st14" points="331.6,308.59 354.43,285.61 355.39,286.58 332.54,309.54 	"/>
	<polygon class="st14" points="356.09,284.53 379.91,282.58 380.03,283.93 356.19,285.88 	"/>
	<path class="st14" d="M379.17,282.7l35.89,11.87l-0.5,0.56l2.79,37.45l-16.09-24.6l11.4-12.77l-33.92-11.23L379.17,282.7z
		 M413.3,296.51l-10.33,11.6l12.65,19.35L413.3,296.51z"/>
	<path class="st14" d="M380.07,283.08l23.38,25.41l-27.38,4.65l1.65-28.17l-25.87,23.41l-20.38,2.37l-0.15-1.35l19.96-2.32
		l27.99-25.32l-0.13,2.18L380.07,283.08z M400.77,307.59l-21.64-23.54l-1.61,27.48L400.77,307.59z"/>
	<polygon class="st14" points="350.91,307.63 354.64,285.23 355.96,285.46 352.23,307.84 	"/>
	<polygon class="st14" points="332.16,310.49 337.4,330.01 336.1,330.38 330.86,310.85 	"/>
	<polygon class="st14" points="337.92,331.21 351.6,306.28 364.89,332.64 373.41,317.14 374.59,317.8 364.86,335.53 351.54,309.17 
		339.1,331.87 	"/>
	<polygon class="st14" points="351.69,307.07 371.36,310.62 371.11,311.95 351.44,308.4 	"/>
	<polygon class="st14" points="338.59,332.52 366,333.1 365.98,334.47 338.57,333.87 	"/>
	<polygon class="st14" points="340.12,333.87 373.04,354.69 376.03,311.47 394.86,335.13 401.46,307.88 402.76,308.21 
		395.51,338.14 377.14,315.04 374.23,357.03 339.39,335.01 	"/>
	<polygon class="st14" points="416.67,330.67 395.62,336.79 373.39,357.01 363.84,334.32 365.09,333.79 373.89,354.71 
		394.95,335.59 416.3,329.38 	"/>
	<path class="st15" d="M353.28,454.7l-1.61-0.27c-0.13-0.04-0.25-0.02-0.34,0.02c-0.11,0.04-0.19,0.12-0.27,0.23
		c-0.08,0.1-0.11,0.23-0.15,0.39l-0.17,1.08c-0.04,0.17-0.04,0.31,0,0.44c0.02,0.14,0.08,0.23,0.15,0.31
		c0.08,0.08,0.19,0.12,0.33,0.15l1.61,0.27l-0.25,1.52l-1.66-0.29c-0.46-0.1-0.82-0.23-1.13-0.46c-0.29-0.21-0.5-0.48-0.61-0.83
		c-0.11-0.35-0.13-0.73-0.06-1.16l0.27-1.56c0.08-0.42,0.23-0.77,0.44-1.04c0.23-0.27,0.52-0.46,0.86-0.56
		c0.36-0.12,0.77-0.12,1.21-0.04l1.66,0.29L353.28,454.7z M353.3,458.97l-1.57-0.27l1.61-9.22l1.55,0.27L353.3,458.97z
		 M347.37,457.81l-1.53-0.35l2.03-9.15l1.55,0.35L347.37,457.81z M348.38,450.03l-3.33-0.75l0.33-1.52l3.35,0.75L348.38,450.03z
		 M347.54,453.82l-3.02-0.69l0.34-1.51l3.02,0.68L347.54,453.82z M346.7,457.66l-3.35-0.75l0.34-1.52l3.33,0.75L346.7,457.66z
		 M343.2,448.68l-1.15-0.33c-0.21-0.06-0.38-0.04-0.54,0.06c-0.13,0.1-0.25,0.25-0.31,0.48l-1.26,4.63
		c-0.06,0.23-0.06,0.42,0.02,0.58c0.08,0.17,0.21,0.27,0.42,0.33l1.15,0.33l-0.4,1.47l-1.3-0.37c-0.42-0.12-0.77-0.29-1.03-0.54
		c-0.27-0.23-0.42-0.54-0.5-0.89s-0.06-0.73,0.06-1.16l1.36-4.98c0.11-0.42,0.29-0.77,0.54-1.02c0.23-0.27,0.54-0.42,0.88-0.5
		c0.34-0.08,0.75-0.06,1.17,0.06l1.3,0.37L343.2,448.68z M342.15,456.52l-1.53-0.42l2.47-9.03l1.53,0.42L342.15,456.52z
		 M334.99,454.34l-1.05-0.35l0.78-9.61l1.49,0.5l-0.77,6.21l3.04-5.46l1.49,0.48L334.99,454.34z M337.65,448.45l-2.41-0.79
		l0.46-1.43l2.41,0.81L337.65,448.45z M328.45,447.29l0.99-2.6c0.17-0.46,0.4-0.83,0.71-1.08c0.29-0.27,0.63-0.42,1.01-0.48
		c0.38-0.04,0.8,0.02,1.26,0.19c0.46,0.17,0.82,0.41,1.07,0.69c0.27,0.29,0.42,0.64,0.48,1.02c0.06,0.39,0,0.81-0.17,1.25
		l-1.72,4.53c-0.17,0.48-0.42,0.85-0.71,1.12c-0.31,0.27-0.65,0.44-1.03,0.5c-0.38,0.04-0.8-0.02-1.26-0.19
		c-0.44-0.15-0.78-0.39-1.03-0.69c-0.25-0.29-0.4-0.64-0.44-1.02c-0.06-0.41,0.02-0.83,0.19-1.27l0.25-0.68l1.53,0.58l-0.25,0.68
		c-0.06,0.14-0.08,0.27-0.08,0.39c0.02,0.14,0.06,0.23,0.11,0.33c0.08,0.08,0.17,0.15,0.29,0.19c0.13,0.06,0.25,0.06,0.38,0.04
		c0.11-0.02,0.21-0.08,0.31-0.17c0.1-0.08,0.17-0.21,0.23-0.37l1.72-4.53c0.06-0.12,0.06-0.25,0.04-0.37
		c-0.02-0.12-0.06-0.21-0.15-0.31c-0.08-0.08-0.19-0.15-0.33-0.21c-0.15-0.06-0.29-0.08-0.4-0.06c-0.13,0.02-0.23,0.06-0.33,0.14
		c-0.1,0.08-0.17,0.19-0.23,0.33l-0.46,1.2l0.73,0.29l-0.54,1.43L328.45,447.29z M327.32,441.12c0.46,0.21,0.8,0.46,1.07,0.75
		c0.25,0.31,0.4,0.66,0.44,1.02c0.04,0.39-0.04,0.77-0.21,1.2l-2.05,4.73c-0.19,0.42-0.44,0.75-0.75,0.98
		c-0.29,0.23-0.65,0.35-1.03,0.37c-0.4,0-0.82-0.1-1.28-0.29c-0.46-0.19-0.8-0.44-1.07-0.75c-0.25-0.31-0.4-0.64-0.44-1.02
		s0.02-0.77,0.21-1.2l2.05-4.73c0.19-0.42,0.44-0.75,0.73-0.98c0.31-0.21,0.65-0.35,1.05-0.35
		C326.44,440.83,326.86,440.93,327.32,441.12L327.32,441.12z M326.69,442.59c-0.15-0.06-0.31-0.1-0.42-0.08
		c-0.13,0-0.27,0.06-0.36,0.14c-0.1,0.1-0.19,0.21-0.25,0.37l-1.89,4.36c-0.08,0.15-0.1,0.29-0.1,0.42s0.06,0.27,0.13,0.37
		c0.08,0.12,0.19,0.19,0.34,0.25c0.15,0.08,0.29,0.1,0.42,0.1c0.13-0.02,0.25-0.08,0.34-0.15c0.11-0.1,0.19-0.21,0.27-0.37
		l1.88-4.34c0.08-0.17,0.11-0.31,0.1-0.44c0-0.14-0.04-0.25-0.13-0.37C326.93,442.74,326.82,442.64,326.69,442.59L326.69,442.59z
		 M317.94,442.24l1.24-2.51c0.21-0.44,0.48-0.77,0.8-1c0.31-0.23,0.67-0.37,1.07-0.37c0.38-0.02,0.78,0.08,1.22,0.29
		c0.44,0.23,0.77,0.5,1.01,0.81c0.23,0.33,0.34,0.68,0.36,1.06c0.02,0.41-0.08,0.81-0.29,1.23l-2.14,4.34
		c-0.23,0.46-0.5,0.81-0.82,1.04c-0.33,0.25-0.69,0.39-1.07,0.41c-0.4,0-0.8-0.1-1.24-0.31c-0.42-0.21-0.75-0.48-0.96-0.79
		c-0.23-0.33-0.34-0.68-0.34-1.06c0-0.41,0.1-0.83,0.31-1.25l0.33-0.66l1.45,0.73l-0.31,0.64c-0.08,0.15-0.11,0.27-0.11,0.39
		c0,0.14,0.04,0.23,0.1,0.33c0.06,0.1,0.15,0.17,0.27,0.23c0.11,0.06,0.25,0.1,0.36,0.08c0.11-0.02,0.23-0.06,0.34-0.14
		c0.1-0.1,0.17-0.21,0.25-0.35l2.14-4.36c0.06-0.12,0.1-0.23,0.08-0.35c0-0.12-0.04-0.21-0.11-0.31c-0.08-0.12-0.19-0.19-0.31-0.25
		c-0.15-0.08-0.29-0.12-0.4-0.12c-0.13,0-0.25,0.04-0.34,0.12c-0.1,0.06-0.19,0.17-0.25,0.31l-0.57,1.14l0.71,0.35l-0.67,1.37
		L317.94,442.24z M318.06,436.43l1.4,0.79l-4.53,8.16l-1.4-0.77L318.06,436.43z M313.83,438.96l-4.19,3.3l-1.51-0.96l7.19-4.75
		L313.83,438.96z M312.24,443.9l-1.34-0.85l4.92-7.95l1.36,0.85L312.24,443.9z M312.93,439.31l-1.43,0.23l1.3-6.33l1.47,0.93
		L312.93,439.31z M309.06,430.62l1.3,0.91l-5.3,7.7l-1.3-0.91L309.06,430.62z M302.54,437.49l-0.98-0.77l2.05-6.29l0.29-0.1
		l-3.94,5.13l-1.13-0.89l5.66-7.41l0.99,0.79l-1.86,5.98l-0.29,0.1l3.73-4.86l1.15,0.91L302.54,437.49z M297.55,433.59l-0.94-0.81
		l2.37-6.17l0.29-0.08l-4.19,4.94l-1.09-0.95l6.03-7.12l0.96,0.83l-2.16,5.89l-0.29,0.08l3.96-4.67l1.11,0.96L297.55,433.59z
		 M297.49,420.94c0.36,0.35,0.61,0.71,0.75,1.08c0.15,0.37,0.17,0.73,0.1,1.1c-0.1,0.39-0.31,0.73-0.61,1.06l-3.52,3.74
		c-0.31,0.35-0.65,0.56-1.01,0.68s-0.73,0.12-1.11-0.02c-0.36-0.12-0.75-0.35-1.11-0.69c-0.34-0.35-0.61-0.71-0.75-1.08
		c-0.13-0.37-0.17-0.73-0.08-1.1c0.1-0.39,0.29-0.73,0.61-1.06l3.5-3.74c0.33-0.35,0.67-0.56,1.01-0.68
		c0.36-0.12,0.75-0.1,1.11,0.02C296.76,420.36,297.13,420.59,297.49,420.94L297.49,420.94z M296.4,422.09
		c-0.11-0.12-0.23-0.19-0.36-0.21c-0.13-0.04-0.27-0.04-0.38,0.02c-0.13,0.04-0.25,0.14-0.36,0.25l-3.23,3.45
		c-0.11,0.12-0.19,0.25-0.23,0.37c-0.04,0.14-0.04,0.27,0,0.39c0.04,0.14,0.11,0.25,0.23,0.37c0.11,0.12,0.25,0.19,0.36,0.21
		c0.13,0.04,0.27,0.04,0.38-0.02c0.13-0.04,0.25-0.12,0.36-0.25l3.23-3.45c0.11-0.12,0.21-0.25,0.25-0.37
		c0.04-0.14,0.04-0.27,0-0.39C296.59,422.32,296.51,422.21,296.4,422.09L296.4,422.09z M288.57,425.45l-1.17-1.22l4.02-5.13
		l-5.24,3.82l-1.17-1.22l7.9-5.23l1.19,1.25L288.57,425.45z M283.52,420.05l-0.73-0.85l5.59-7.81l1.03,1.2l-3.83,4.92l5.4-3.09
		l1.01,1.2L283.52,420.05z M288.8,416.38l-1.65-1.93l1.11-0.96l1.66,1.93L288.8,416.38z M280.81,415.63l-0.98-1.25l6.72-5.27
		l0.98,1.25L280.81,415.63z M281.13,417.35l-2.87-3.7l1.21-0.95l2.85,3.7L281.13,417.35z M284.02,405.67
		c0.29,0.41,0.44,0.81,0.5,1.2c0.06,0.39-0.02,0.75-0.19,1.12c-0.17,0.35-0.46,0.66-0.84,0.95l-0.42,0.29l-0.9-1.31l0.4-0.27
		c0.19-0.15,0.31-0.31,0.34-0.5c0.02-0.17-0.02-0.37-0.15-0.56c-0.13-0.19-0.29-0.31-0.48-0.33c-0.17-0.02-0.36,0.02-0.55,0.15
		l-0.65,0.48c-0.15,0.1-0.25,0.21-0.29,0.37c-0.06,0.15-0.08,0.31-0.06,0.5c0.02,0.17,0.04,0.41,0.08,0.69
		c0.02,0.02,0.02,0.04,0.02,0.06c0,0.02,0,0.04,0,0.06l0.02,0.08c0.06,0.39,0.08,0.73,0.06,1.04c-0.02,0.31-0.1,0.64-0.27,0.95
		c-0.15,0.31-0.42,0.6-0.8,0.87l-0.38,0.27c-0.4,0.27-0.78,0.44-1.17,0.48c-0.38,0.04-0.75-0.02-1.09-0.19
		c-0.34-0.19-0.65-0.48-0.92-0.89c-0.29-0.39-0.44-0.77-0.48-1.16c-0.06-0.39,0-0.75,0.19-1.1c0.17-0.35,0.46-0.66,0.86-0.93
		l0.42-0.31l0.92,1.29l-0.44,0.31c-0.19,0.14-0.31,0.29-0.34,0.46c-0.04,0.17,0,0.37,0.13,0.54c0.11,0.19,0.27,0.31,0.44,0.33
		c0.17,0.04,0.34,0,0.52-0.14l0.52-0.35c0.13-0.1,0.25-0.23,0.29-0.39c0.06-0.14,0.08-0.29,0.08-0.46
		c-0.02-0.17-0.04-0.39-0.08-0.66c0-0.06-0.02-0.12-0.02-0.17c-0.02-0.04-0.02-0.1-0.04-0.15c0-0.02,0-0.02,0-0.04c0,0,0,0,0-0.02
		c-0.04-0.41-0.06-0.73-0.06-1c0-0.27,0.08-0.56,0.23-0.85c0.15-0.31,0.4-0.58,0.78-0.83l0.63-0.46c0.38-0.27,0.78-0.44,1.17-0.48
		c0.38-0.06,0.75,0.02,1.09,0.19C283.43,405,283.75,405.27,284.02,405.67L284.02,405.67z M281.21,401.79l0.9,1.31l-7.6,5.36
		l-0.92-1.31L281.21,401.79z M276.12,400.46l3.02-1.91l0.84,1.35l-3.02,1.91l-3.92,4.55l-0.88-1.41l2.79-2.8l-3.69,1.35l-0.88-1.41
		L276.12,400.46z M269.33,400.35l-0.54-0.98l7.02-6.52l0.77,1.39l-4.73,4.05l5.89-1.95l0.78,1.39L269.33,400.35z M275.24,397.84
		l-1.24-2.22l1.3-0.73l1.22,2.22L275.24,397.84z M267.11,396.41l-0.71-1.43l8.32-4.15l0.71,1.43L267.11,396.41z M273.78,392.36
		l-1.49-3.03l1.36-0.68l1.49,3.03L273.78,392.36z M263.93,389.93l-0.44-1.04l7.63-5.77l0.63,1.45l-5.11,3.57l6.07-1.35l0.61,1.47
		L263.93,389.93z M270.05,388.02l-1.01-2.33l1.36-0.6l1.01,2.35L270.05,388.02z M265.44,383.77l-0.59-1.58
		c-0.06-0.14-0.11-0.23-0.19-0.31c-0.1-0.08-0.17-0.14-0.29-0.14c-0.1-0.02-0.21,0-0.33,0.04l-0.98,0.37
		c-0.13,0.06-0.23,0.12-0.31,0.19c-0.1,0.1-0.13,0.19-0.15,0.31c0,0.12,0,0.23,0.06,0.37l0.59,1.58l-1.43,0.54l-0.55-1.51
		c-0.17-0.46-0.25-0.91-0.21-1.29c0.02-0.41,0.15-0.73,0.38-1.02c0.23-0.29,0.55-0.52,0.98-0.68l1.01-0.39
		c0.42-0.15,0.82-0.21,1.19-0.15c0.38,0.06,0.71,0.23,0.99,0.52c0.29,0.27,0.52,0.64,0.69,1.12l0.55,1.49L265.44,383.77z
		 M262.07,385.8l-0.54-1.47l8.71-3.3l0.54,1.47L262.07,385.8z M266.13,382.11l-0.78-1.27l3.69-2.99l0.61,1.6L266.13,382.11z
		 M267.32,377.73l-0.57-1.51l2.14-0.81l2.07,0.93L267.32,377.73z M262.63,372.19l-5.3-0.46l-0.46-1.74l8.48,1.47L262.63,372.19z
		 M258.11,374.72l-0.4-1.54l8.97-2.41l0.42,1.54L258.11,374.72z M261.73,371.85l-1.21-0.81l5.24-3.74l0.46,1.7L261.73,371.85z
		 M256.12,367.12l-0.23-1.1l8.61-4.17l0.34,1.56l-5.7,2.47l6.2-0.1l0.33,1.54L256.12,367.12z M262.5,366.46l-0.52-2.49l1.43-0.33
		l0.54,2.51L262.5,366.46z M264.14,359.5c0.08,0.48,0.06,0.91-0.08,1.29c-0.11,0.37-0.33,0.68-0.65,0.91
		c-0.31,0.25-0.69,0.41-1.17,0.48l-0.5,0.1l-0.27-1.58l0.5-0.08c0.23-0.04,0.4-0.14,0.52-0.29c0.11-0.15,0.15-0.35,0.11-0.58
		c-0.04-0.23-0.13-0.39-0.29-0.5c-0.15-0.1-0.34-0.14-0.57-0.1l-0.8,0.14c-0.15,0.02-0.31,0.1-0.4,0.21
		c-0.11,0.12-0.19,0.27-0.27,0.42c-0.06,0.17-0.13,0.39-0.23,0.68c0,0.02,0,0.04-0.02,0.04c0,0.02,0,0.04,0,0.06l-0.04,0.1
		c-0.11,0.37-0.25,0.69-0.38,0.96c-0.15,0.27-0.36,0.5-0.65,0.73c-0.29,0.19-0.65,0.35-1.09,0.42l-0.48,0.08
		c-0.46,0.08-0.88,0.06-1.24-0.08c-0.36-0.12-0.67-0.35-0.9-0.66c-0.23-0.31-0.38-0.71-0.46-1.2c-0.08-0.46-0.06-0.89,0.06-1.25
		c0.13-0.37,0.34-0.68,0.65-0.91c0.31-0.23,0.71-0.39,1.19-0.46l0.52-0.1l0.27,1.56l-0.52,0.1c-0.25,0.04-0.42,0.14-0.54,0.27
		c-0.11,0.14-0.15,0.33-0.11,0.54c0.04,0.23,0.13,0.39,0.27,0.5c0.15,0.1,0.33,0.14,0.54,0.1l0.61-0.1c0.17-0.02,0.31-0.1,0.42-0.21
		c0.11-0.12,0.19-0.23,0.27-0.39c0.06-0.15,0.13-0.37,0.21-0.64c0.02-0.04,0.02-0.1,0.04-0.15s0.04-0.1,0.06-0.15
		c0-0.02,0-0.02,0-0.02c0.02-0.02,0.02-0.02,0.02-0.04c0.13-0.39,0.25-0.69,0.38-0.93c0.11-0.25,0.31-0.46,0.57-0.68
		c0.25-0.19,0.61-0.33,1.05-0.41l0.77-0.14c0.48-0.08,0.9-0.04,1.26,0.08s0.67,0.35,0.9,0.66
		C263.89,358.61,264.06,359.01,264.14,359.5L264.14,359.5z M261.85,355.48l-0.15-1.39c-0.02-0.19-0.1-0.35-0.21-0.44
		c-0.11-0.1-0.27-0.14-0.46-0.12l-1.22,0.15c-0.15,0-0.29,0.06-0.4,0.12c-0.1,0.06-0.17,0.14-0.21,0.25
		c-0.04,0.1-0.06,0.21-0.04,0.35l0.15,1.37l-1.47,0.17l-0.15-1.33c-0.02-0.17-0.1-0.33-0.21-0.41c-0.13-0.1-0.31-0.14-0.54-0.12
		l-0.99,0.12c-0.17,0.04-0.33,0.1-0.4,0.21c-0.1,0.12-0.13,0.27-0.11,0.46l0.15,1.33l-1.47,0.17l-0.17-1.51
		c-0.04-0.42-0.02-0.79,0.1-1.1c0.11-0.31,0.31-0.56,0.57-0.75c0.27-0.19,0.61-0.31,1.01-0.35l0.98-0.12
		c0.29-0.04,0.54-0.02,0.77,0.06c0.23,0.1,0.42,0.23,0.57,0.41c0.17,0.19,0.29,0.42,0.36,0.71c0.02-0.33,0.08-0.6,0.19-0.83
		c0.11-0.25,0.27-0.42,0.48-0.58c0.23-0.14,0.48-0.23,0.78-0.27l1.24-0.14c0.42-0.06,0.77-0.02,1.07,0.1
		c0.31,0.14,0.55,0.33,0.73,0.6c0.19,0.29,0.31,0.64,0.36,1.04l0.17,1.64L261.85,355.48z M254.19,357.3l-0.17-1.6l9.22-1.06
		l0.19,1.58L254.19,357.3z M258.42,347.51l1.51-0.12l0.23,3.43l-1.51,0.1L258.42,347.51z M252.99,343.33l-0.04-1.58l9.3-0.17
		l0.02,1.6L252.99,343.33z M253.02,346.2l-0.02-1.6l9.28-0.17l0.04,1.6L253.02,346.2z M256.99,345.37l-0.06-3.15l1.49-0.02
		l0.06,3.13L256.99,345.37z M262.29,338.29c-0.02,0.46-0.11,0.87-0.31,1.2s-0.48,0.58-0.84,0.75c-0.34,0.15-0.77,0.23-1.26,0.21
		l-7.04-0.21l0.06-1.6l7.08,0.21c0.23,0.02,0.4-0.04,0.54-0.15c0.13-0.1,0.19-0.25,0.19-0.44c0.02-0.21-0.04-0.37-0.17-0.48
		c-0.11-0.12-0.29-0.17-0.52-0.19l-7.08-0.21l0.04-1.6l7.04,0.21c0.5,0.02,0.9,0.12,1.26,0.31c0.34,0.19,0.59,0.44,0.78,0.79
		C262.23,337.42,262.3,337.83,262.29,338.29L262.29,338.29z M252.93,334.39l0.1-1.25l6.35-1.7l0.23,0.17l-6.43-0.5l0.11-1.45
		l9.26,0.73l-0.1,1.25l-5.99,1.72l-0.25-0.19l6.07,0.48l-0.1,1.47L252.93,334.39z M253.56,326.42l0.13-1.1l9.49-1.06l-0.19,1.58
		l-6.2,0.42l5.89,1.99l-0.19,1.56L253.56,326.42z M259.78,327.95l0.33-2.55l1.47,0.19l-0.33,2.53L259.78,327.95z M257.98,321.93
		l0.29-1.68c0.02-0.14,0.02-0.25-0.02-0.35c-0.04-0.12-0.08-0.21-0.17-0.27c-0.08-0.06-0.17-0.12-0.31-0.14l-1.01-0.17
		c-0.15-0.02-0.27-0.02-0.38,0c-0.1,0.04-0.19,0.1-0.27,0.19c-0.06,0.1-0.11,0.21-0.13,0.35l-0.29,1.66l-1.49-0.27l0.27-1.56
		c0.08-0.5,0.23-0.91,0.46-1.23c0.23-0.33,0.52-0.56,0.84-0.69c0.36-0.12,0.75-0.15,1.19-0.08l1.07,0.19
		c0.44,0.08,0.8,0.23,1.11,0.48c0.29,0.23,0.48,0.56,0.57,0.95c0.11,0.39,0.13,0.81,0.04,1.31l-0.27,1.56L257.98,321.93z
		 M254.06,321.97l0.27-1.54l9.16,1.6l-0.27,1.54L254.06,321.97z M259.42,320.85l-0.04-1.49l4.69-0.69l-0.29,1.7L259.42,320.85z
		 M256.68,312.34l0.34-1.54l8.3,1.87l-0.34,1.56L256.68,312.34z M255.57,313.69l1.03-4.59l1.47,0.35l-1.01,4.57L255.57,313.69z
		 M257.25,306.78l0.29-1.08l9.55,0.33l-0.42,1.52l-6.18-0.44l5.55,2.78l-0.42,1.54L257.25,306.78z M263.2,309.17l0.67-2.45
		l1.42,0.39l-0.67,2.47L263.2,309.17z M258.21,303.35l0.48-1.45l3.1,1.02l-0.48,1.45L258.21,303.35z M258.92,301.2l0.48-1.52
		l8.84,2.91l-0.5,1.52L258.92,301.2z M266.49,303.02l1.05-3.2l1.43,0.46l-1.03,3.22L266.49,303.02z M269.86,298.16l-0.57,1.51
		l-8.69-3.34l0.57-1.51L269.86,298.16z M263.53,289.14l0.59-1.37l8.51,3.76l-0.57,1.31l-5.93-2.62l0.4,0.08l3.52,3.03l-0.31,0.73
		l-4.5-0.5l-0.44-0.33l5.95,2.62l-0.59,1.33l-8.49-3.76l0.59-1.39l5.24,0.62L263.53,289.14z M273.78,289.2l-0.71,1.43l-8.32-4.17
		l0.71-1.45L273.78,289.2z M274.57,284.4l0.69-1.23c0.1-0.17,0.11-0.33,0.08-0.48c-0.04-0.14-0.13-0.27-0.29-0.35l-1.09-0.62
		c-0.13-0.08-0.27-0.12-0.38-0.14c-0.11,0-0.23,0.02-0.33,0.08c-0.1,0.06-0.17,0.15-0.25,0.27l-0.67,1.2l-1.28-0.71l0.65-1.18
		c0.1-0.17,0.11-0.33,0.06-0.48c-0.06-0.14-0.17-0.27-0.36-0.39l-0.88-0.48c-0.15-0.1-0.31-0.12-0.46-0.08
		c-0.13,0.04-0.25,0.14-0.34,0.29l-0.65,1.18l-1.3-0.71l0.75-1.33c0.19-0.37,0.44-0.64,0.71-0.83c0.29-0.19,0.57-0.27,0.9-0.27
		s0.67,0.1,1.03,0.31l0.86,0.48c0.25,0.14,0.44,0.31,0.57,0.5c0.13,0.21,0.21,0.42,0.23,0.68c0.04,0.25,0,0.5-0.11,0.77
		c0.19-0.25,0.4-0.42,0.63-0.56c0.23-0.12,0.48-0.17,0.73-0.17c0.27,0.02,0.52,0.1,0.78,0.25l1.11,0.62
		c0.34,0.19,0.61,0.44,0.8,0.71c0.17,0.27,0.25,0.58,0.25,0.93c-0.02,0.33-0.13,0.68-0.33,1.04l-0.8,1.45L274.57,284.4z
		 M267.32,281.35l0.78-1.41l8.11,4.57l-0.78,1.41L267.32,281.35z M279.39,279.28c-0.27,0.44-0.57,0.75-0.9,0.96
		c-0.34,0.21-0.69,0.31-1.07,0.29c-0.38,0-0.77-0.14-1.15-0.39l-4.34-2.72c-0.38-0.25-0.67-0.54-0.84-0.89
		c-0.17-0.33-0.25-0.69-0.21-1.08c0.06-0.41,0.21-0.81,0.48-1.23c0.25-0.42,0.55-0.75,0.88-0.96c0.34-0.21,0.69-0.31,1.07-0.29
		c0.38,0,0.77,0.14,1.15,0.39l4.34,2.74c0.38,0.23,0.67,0.52,0.84,0.87c0.17,0.33,0.25,0.69,0.21,1.1
		C279.79,278.45,279.64,278.86,279.39,279.28L279.39,279.28z M278.03,278.43c0.1-0.14,0.13-0.27,0.15-0.41
		c0-0.14-0.02-0.25-0.1-0.37c-0.08-0.12-0.17-0.21-0.33-0.31l-4-2.53c-0.13-0.08-0.27-0.14-0.4-0.15c-0.13,0-0.27,0.02-0.38,0.1
		c-0.11,0.06-0.21,0.15-0.31,0.29c-0.08,0.15-0.11,0.29-0.13,0.41c0,0.14,0.02,0.27,0.1,0.39c0.08,0.12,0.17,0.21,0.33,0.31l4,2.51
		c0.13,0.1,0.27,0.15,0.4,0.15c0.13,0.02,0.27,0,0.38-0.08C277.86,278.69,277.95,278.59,278.03,278.43L278.03,278.43z
		 M282.39,274.71c-0.27,0.41-0.59,0.69-0.94,0.87c-0.34,0.19-0.71,0.27-1.09,0.21c-0.38-0.04-0.78-0.19-1.19-0.48l-0.4-0.27
		l0.9-1.33l0.4,0.29c0.19,0.14,0.38,0.19,0.57,0.15c0.17-0.02,0.34-0.14,0.48-0.33c0.11-0.19,0.17-0.39,0.13-0.56
		c-0.04-0.17-0.15-0.33-0.34-0.46l-0.65-0.48c-0.15-0.1-0.29-0.14-0.46-0.14c-0.15,0.02-0.31,0.06-0.48,0.14
		c-0.15,0.06-0.36,0.17-0.61,0.31c-0.02,0.02-0.04,0.02-0.06,0.02c-0.02,0.02-0.02,0.02-0.04,0.04l-0.08,0.04
		c-0.34,0.19-0.67,0.33-0.96,0.42c-0.31,0.08-0.61,0.12-0.98,0.06c-0.34-0.04-0.71-0.19-1.07-0.46l-0.4-0.27
		c-0.38-0.27-0.67-0.58-0.84-0.93c-0.17-0.35-0.23-0.71-0.19-1.1c0.06-0.39,0.23-0.79,0.5-1.18c0.27-0.41,0.57-0.69,0.92-0.87
		c0.34-0.17,0.71-0.23,1.09-0.19c0.38,0.06,0.77,0.21,1.17,0.5l0.42,0.29l-0.88,1.31l-0.44-0.29c-0.19-0.14-0.38-0.19-0.55-0.17
		c-0.17,0.02-0.33,0.12-0.46,0.29c-0.13,0.19-0.17,0.39-0.15,0.56c0.04,0.17,0.13,0.33,0.31,0.44l0.52,0.35
		c0.13,0.12,0.29,0.15,0.44,0.15c0.15,0,0.31-0.04,0.46-0.1c0.15-0.06,0.34-0.17,0.59-0.29c0.04-0.04,0.1-0.06,0.13-0.1
		c0.06-0.02,0.11-0.04,0.15-0.08c0.02,0,0.02,0,0.02,0c0.02,0,0.02-0.02,0.04-0.02c0.34-0.17,0.65-0.31,0.92-0.41
		c0.25-0.08,0.54-0.12,0.86-0.08s0.67,0.19,1.05,0.46l0.63,0.44c0.38,0.27,0.67,0.58,0.86,0.93c0.17,0.35,0.23,0.71,0.19,1.12
		C282.83,273.92,282.68,274.31,282.39,274.71L282.39,274.71z M278.62,263.94l0.98-1.25l7.35,5.73l-0.96,1.25L278.62,263.94z
		 M276.9,266.22l0.96-1.27l7.37,5.73l-0.98,1.25L276.9,266.22z M280.5,268.05l1.89-2.47l1.19,0.91l-1.91,2.49L280.5,268.05z
		 M287.31,264.77l-0.21-1.54l3.77-0.41l0.23,1.56L287.31,264.77z M289.3,265.78c-0.33,0.39-0.67,0.66-1.03,0.81
		s-0.73,0.21-1.09,0.14s-0.73-0.25-1.09-0.56l-3.88-3.36c-0.34-0.29-0.57-0.62-0.71-0.98c-0.13-0.37-0.13-0.73-0.04-1.12
		c0.1-0.39,0.31-0.75,0.63-1.14s0.67-0.66,1.03-0.81c0.36-0.17,0.73-0.21,1.11-0.14c0.36,0.06,0.73,0.25,1.07,0.56l3.88,3.34
		c0.34,0.31,0.59,0.64,0.71,0.98c0.13,0.37,0.13,0.73,0.04,1.12C289.84,265,289.63,265.39,289.3,265.78L289.3,265.78z M288.1,264.73
		c0.11-0.12,0.17-0.25,0.19-0.39c0.04-0.14,0.02-0.25-0.02-0.39c-0.06-0.12-0.15-0.23-0.29-0.35l-3.58-3.09
		c-0.11-0.12-0.25-0.17-0.38-0.21c-0.13-0.04-0.25-0.02-0.38,0.02c-0.11,0.06-0.23,0.14-0.34,0.25c-0.1,0.14-0.17,0.25-0.19,0.39
		c-0.04,0.14-0.02,0.25,0.04,0.39c0.06,0.12,0.13,0.23,0.27,0.35l3.58,3.09c0.13,0.12,0.27,0.19,0.38,0.21
		c0.13,0.04,0.27,0.04,0.38-0.02C287.88,264.95,288,264.87,288.1,264.73L288.1,264.73z M286.09,255.26l0.77-0.81l8.27,4.8
		l-1.07,1.16l-5.24-3.34l3.6,5.09l-1.09,1.16L286.09,255.26z M290.22,260.2l1.74-1.85l1.07,1.02l-1.72,1.85L290.22,260.2z
		 M292.4,254.35l1.21-1.18c0.11-0.1,0.17-0.19,0.21-0.29c0.04-0.12,0.06-0.21,0.02-0.31c-0.02-0.12-0.08-0.21-0.17-0.31l-0.71-0.75
		c-0.1-0.1-0.21-0.17-0.31-0.21c-0.11-0.04-0.23-0.04-0.33,0c-0.11,0.02-0.21,0.08-0.31,0.17l-1.22,1.18l-1.05-1.12l1.15-1.1
		c0.36-0.35,0.73-0.58,1.09-0.71c0.38-0.12,0.75-0.14,1.09-0.04c0.36,0.1,0.69,0.31,0.99,0.64l0.75,0.79
		c0.33,0.33,0.52,0.68,0.61,1.06c0.1,0.37,0.06,0.73-0.08,1.1c-0.13,0.39-0.38,0.73-0.75,1.08l-1.15,1.1L292.4,254.35z
		 M289.24,252.04l1.11-1.08l6.43,6.77l-1.13,1.08L289.24,252.04z M294.18,254.35l0.86-1.23l4.19,2.26l-1.24,1.2L294.18,254.35z
		 M301.47,253.62c-0.34,0.29-0.71,0.48-1.09,0.58c-0.36,0.08-0.75,0.04-1.11-0.12s-0.69-0.42-1.01-0.79l-4.61-5.38l1.21-1.04
		l4.63,5.4c0.15,0.17,0.31,0.27,0.48,0.29c0.17,0.04,0.33-0.02,0.48-0.15c0.13-0.14,0.23-0.29,0.23-0.44c0-0.17-0.08-0.35-0.23-0.52
		l-4.63-5.4l1.21-1.06l4.61,5.38c0.33,0.37,0.52,0.75,0.61,1.14c0.1,0.39,0.1,0.75-0.04,1.12
		C302.06,252.98,301.81,253.31,301.47,253.62L301.47,253.62z M297.76,244.42l1.32-1.04l4.65,4.55l-3.25-5.65l1.34-1.04l4.34,8.45
		l-1.34,1.06L297.76,244.42z M307.13,237.47l1.3-0.93l5.32,7.68l-1.28,0.91L307.13,237.47z M304.8,239.11l1.3-0.93l5.34,7.68
		l-1.3,0.91L304.8,239.11z M307.71,241.95l2.54-1.79l0.86,1.22l-2.56,1.81L307.71,241.95z M311.23,234.88l0.94-0.6l6.83,6.75
		l-1.34,0.83l-4.25-4.55l2.22,5.85l-1.34,0.85L311.23,234.88z M314.02,240.69l2.14-1.35l0.78,1.27l-2.14,1.35L314.02,240.69z
		 M319.63,230.21l1.34-0.66l4.11,8.39l-1.26,0.64l-2.87-5.87l0.27,0.33l0.75,4.61l-0.71,0.35l-3.12-3.28l-0.11-0.54l2.87,5.87
		l-1.28,0.64l-4.13-8.39l1.36-0.68l3.64,3.86L319.63,230.21z M326.46,235.58l1.09-0.48c0.19-0.08,0.31-0.21,0.36-0.37
		c0.06-0.17,0.04-0.37-0.06-0.58l-1.89-4.42c-0.1-0.21-0.23-0.35-0.38-0.42c-0.15-0.08-0.33-0.08-0.54,0.02l-1.09,0.46l-0.59-1.39
		l1.22-0.54c0.42-0.19,0.8-0.27,1.15-0.23c0.36,0.02,0.67,0.14,0.96,0.37c0.27,0.23,0.5,0.54,0.67,0.95l2.05,4.73
		c0.17,0.41,0.23,0.79,0.21,1.14c-0.02,0.37-0.15,0.68-0.38,0.96c-0.23,0.27-0.54,0.5-0.96,0.68l-1.22,0.54L326.46,235.58z
		 M322.38,228.82l1.45-0.64l3.71,8.59l-1.45,0.64L322.38,228.82z M329.29,225.85l1.03-0.41l5.36,7.99l-1.47,0.56l-3.27-5.33
		l1.01,6.17l-1.47,0.56L329.29,225.85z M330.86,232.1l2.37-0.89l0.52,1.39l-2.37,0.91L330.86,232.1z M337.96,227.2l1.57-0.5
		c0.11-0.04,0.21-0.12,0.29-0.19c0.06-0.08,0.11-0.19,0.11-0.33c0.02-0.12,0-0.25-0.04-0.41l-0.34-1.04
		c-0.04-0.17-0.11-0.29-0.19-0.41c-0.1-0.1-0.19-0.15-0.29-0.19c-0.11-0.02-0.23-0.02-0.36,0.02l-1.55,0.5l-0.48-1.45l1.61-0.52
		c0.44-0.15,0.84-0.19,1.21-0.14s0.67,0.21,0.94,0.44c0.25,0.25,0.44,0.6,0.57,1l0.48,1.51c0.13,0.42,0.17,0.81,0.1,1.14
		c-0.08,0.35-0.25,0.66-0.5,0.91c-0.27,0.25-0.61,0.44-1.05,0.6l-1.61,0.52L337.96,227.2z M335.97,223.42l1.51-0.48l2.83,8.93
		l-1.49,0.48L335.97,223.42z M341.76,221.69l1.53-0.42l2.39,9.05l-1.53,0.42L341.76,221.69z M344.44,229.04l3.31-0.89l0.4,1.51
		l-3.31,0.89L344.44,229.04z M343.45,225.29l3-0.81l0.4,1.51l-3,0.81L343.45,225.29z M342.45,221.49l3.31-0.89l0.38,1.51l-3.31,0.89
		L342.45,221.49z M349.66,227.8l1.17-0.25c0.21-0.06,0.34-0.15,0.44-0.31c0.08-0.15,0.1-0.35,0.06-0.58l-1.01-4.69
		c-0.04-0.23-0.13-0.41-0.27-0.5c-0.15-0.12-0.33-0.14-0.54-0.1l-1.15,0.25l-0.33-1.49l1.32-0.29c0.42-0.1,0.82-0.1,1.17,0
		c0.33,0.1,0.61,0.27,0.84,0.56c0.23,0.27,0.4,0.62,0.48,1.04l1.09,5.06c0.08,0.42,0.08,0.81-0.02,1.16
		c-0.1,0.35-0.29,0.64-0.55,0.85c-0.27,0.23-0.63,0.41-1.07,0.5l-1.3,0.27L349.66,227.8z M347.01,220.35l1.55-0.33l1.95,9.17
		l-1.55,0.33L347.01,220.35z M354.35,218.93l1.09-0.17l3.71,8.88l-1.55,0.27l-2.18-5.87l-0.19,6.25l-1.55,0.25L354.35,218.93z
		 M354.7,225.39l2.49-0.42l0.25,1.49l-2.51,0.41L354.7,225.39z M363.36,222.11l0.33,2.78c0.06,0.48,0,0.93-0.13,1.29
		c-0.13,0.37-0.36,0.68-0.69,0.89c-0.33,0.23-0.73,0.37-1.21,0.42c-0.48,0.06-0.9,0.02-1.28-0.12c-0.36-0.15-0.65-0.37-0.88-0.69
		c-0.23-0.33-0.36-0.71-0.42-1.2l-0.54-4.82c-0.06-0.5-0.02-0.95,0.11-1.31c0.13-0.39,0.36-0.69,0.69-0.93
		c0.33-0.23,0.73-0.37,1.21-0.42c0.46-0.06,0.88-0.02,1.24,0.14c0.34,0.14,0.63,0.39,0.86,0.71c0.21,0.33,0.34,0.73,0.4,1.22
		l0.08,0.71l-1.61,0.19l-0.1-0.71c-0.02-0.15-0.06-0.27-0.11-0.39c-0.06-0.1-0.15-0.17-0.25-0.21c-0.1-0.06-0.21-0.06-0.34-0.06
		c-0.13,0.02-0.25,0.06-0.34,0.14c-0.1,0.08-0.17,0.19-0.21,0.31c-0.04,0.14-0.06,0.27-0.04,0.44l0.55,4.82
		c0.02,0.12,0.06,0.23,0.13,0.33c0.06,0.1,0.15,0.17,0.27,0.21c0.11,0.04,0.25,0.04,0.4,0.04c0.15-0.02,0.27-0.08,0.38-0.14
		c0.1-0.08,0.17-0.15,0.23-0.27c0.04-0.12,0.06-0.25,0.04-0.41l-0.13-1.27l-0.78,0.1l-0.17-1.52L363.36,222.11z M367.21,227.03
		c-0.52,0.04-0.94-0.02-1.3-0.17c-0.36-0.14-0.65-0.37-0.86-0.69c-0.21-0.31-0.33-0.69-0.36-1.16l-0.34-5.15
		c-0.02-0.46,0.04-0.87,0.21-1.2c0.17-0.35,0.42-0.62,0.77-0.81c0.34-0.19,0.77-0.31,1.26-0.35c0.5-0.04,0.92,0.02,1.28,0.17
		c0.38,0.15,0.67,0.39,0.86,0.69c0.21,0.33,0.34,0.71,0.36,1.18l0.34,5.13c0.02,0.46-0.04,0.87-0.21,1.22
		c-0.15,0.33-0.42,0.6-0.77,0.81C368.11,226.89,367.69,227.01,367.21,227.03L367.21,227.03z M367.09,225.45
		c0.15-0.02,0.31-0.06,0.4-0.14c0.11-0.06,0.21-0.15,0.25-0.29c0.06-0.12,0.08-0.27,0.08-0.44l-0.33-4.75
		c0-0.15-0.04-0.31-0.11-0.42c-0.06-0.12-0.15-0.19-0.29-0.25c-0.11-0.06-0.25-0.08-0.42-0.08c-0.15,0.02-0.29,0.06-0.4,0.14
		c-0.11,0.06-0.19,0.17-0.25,0.29c-0.06,0.12-0.08,0.27-0.06,0.44l0.31,4.73c0.02,0.17,0.06,0.33,0.11,0.44
		c0.08,0.12,0.17,0.19,0.29,0.25C366.79,225.43,366.94,225.45,367.09,225.45L367.09,225.45z"/>
	<path class="st15" d="M375,221.67l0.06,2.8c0,0.5-0.08,0.93-0.25,1.27c-0.19,0.35-0.44,0.64-0.78,0.83
		c-0.34,0.17-0.75,0.29-1.22,0.29c-0.5,0.02-0.92-0.08-1.26-0.25c-0.36-0.17-0.63-0.42-0.82-0.77c-0.19-0.33-0.29-0.73-0.31-1.22
		l-0.08-4.86c-0.02-0.5,0.06-0.93,0.25-1.29c0.17-0.37,0.42-0.66,0.77-0.85s0.75-0.31,1.22-0.31c0.48-0.02,0.9,0.08,1.22,0.25
		c0.34,0.17,0.61,0.44,0.8,0.79c0.17,0.35,0.29,0.77,0.29,1.25l0.02,0.73l-1.65,0.02v-0.71c0-0.15-0.04-0.29-0.1-0.39
		c-0.04-0.12-0.11-0.19-0.21-0.25c-0.1-0.06-0.21-0.08-0.34-0.08c-0.13,0-0.27,0.04-0.36,0.1c-0.1,0.06-0.17,0.15-0.23,0.29
		c-0.06,0.12-0.08,0.25-0.08,0.42l0.08,4.84c0,0.14,0.04,0.25,0.1,0.37c0.06,0.1,0.15,0.17,0.27,0.21c0.1,0.06,0.23,0.08,0.38,0.08
		s0.29-0.04,0.4-0.1c0.11-0.06,0.19-0.14,0.25-0.25c0.06-0.1,0.1-0.23,0.08-0.39l-0.02-1.27l-0.78,0.02l-0.02-1.54L375,221.67z
		 M380.45,222.63l2.18-4.88l1.78,0.14l-4.19,7.58L380.45,222.63z M379.57,217.52l1.59,0.12l-0.73,9.34l-1.57-0.12L379.57,217.52z
		 M381.08,221.9l1.17-0.87l1.74,6.23l-1.74-0.14L381.08,221.9z M387.34,218.19l1.11,0.15l1.03,9.57l-1.55-0.19l-0.44-6.25
		l-1.95,5.94l-1.55-0.19L387.34,218.19z M385.84,224.48l2.51,0.31l-0.19,1.49l-2.51-0.31L385.84,224.48z M391.47,226.68l1.17,0.19
		c0.21,0.04,0.38,0,0.52-0.1c0.13-0.12,0.23-0.29,0.27-0.52l0.82-4.73c0.04-0.23,0-0.42-0.08-0.58c-0.1-0.15-0.25-0.23-0.46-0.27
		l-1.17-0.21l0.27-1.51l1.32,0.23c0.44,0.08,0.8,0.21,1.07,0.44c0.29,0.21,0.48,0.48,0.59,0.83s0.13,0.73,0.06,1.16l-0.88,5.09
		c-0.08,0.42-0.23,0.79-0.44,1.06c-0.21,0.29-0.5,0.48-0.84,0.6c-0.34,0.1-0.73,0.12-1.17,0.04l-1.32-0.23L391.47,226.68z
		 M391.76,218.77l1.57,0.27l-1.61,9.24l-1.55-0.29L391.76,218.77z M397.48,223.77l1.65,0.37c0.13,0.04,0.25,0.04,0.36,0
		c0.1-0.02,0.19-0.08,0.27-0.15c0.06-0.08,0.11-0.17,0.13-0.31l0.23-1.02c0.04-0.14,0.04-0.25,0-0.37
		c-0.02-0.12-0.08-0.21-0.17-0.27c-0.08-0.08-0.19-0.14-0.33-0.15l-1.63-0.39l0.33-1.49l1.55,0.35c0.48,0.12,0.88,0.29,1.21,0.52
		c0.31,0.23,0.52,0.54,0.63,0.89c0.11,0.37,0.11,0.75,0.02,1.2L401.5,224c-0.1,0.44-0.29,0.81-0.54,1.1
		c-0.25,0.27-0.57,0.46-0.96,0.54c-0.38,0.1-0.82,0.08-1.32-0.04l-1.53-0.35L397.48,223.77z M397.63,219.83l1.51,0.33l-2.03,9.15
		l-1.51-0.33L397.63,219.83z M398.47,225.27l1.47,0.02l0.46,4.77l-1.65-0.37L398.47,225.27z M403.83,221.28l1.51,0.42l-2.45,9.03
		l-1.53-0.42L403.83,221.28z M402.39,229.02l3.21,0.89l-0.4,1.49l-3.21-0.91L402.39,229.02z M410.7,223.31l1.05,0.35l-0.78,9.61
		l-1.49-0.5l0.75-6.21l-3.02,5.46l-1.49-0.48L410.7,223.31z M408.04,229.19l2.41,0.79l-0.46,1.43l-2.41-0.81L408.04,229.19z
		 M414.22,228.63l1.55,0.6c0.13,0.06,0.25,0.08,0.36,0.06c0.11,0,0.21-0.04,0.29-0.12c0.08-0.06,0.15-0.15,0.19-0.27l0.36-0.98
		c0.06-0.14,0.08-0.25,0.06-0.37c0-0.12-0.06-0.21-0.11-0.31c-0.08-0.08-0.19-0.15-0.31-0.19l-1.57-0.62l0.54-1.43l1.47,0.58
		c0.48,0.17,0.84,0.41,1.13,0.69c0.27,0.27,0.44,0.6,0.5,0.96c0.06,0.37,0.02,0.75-0.15,1.18l-0.38,1.02
		c-0.15,0.42-0.38,0.77-0.67,1c-0.29,0.23-0.63,0.37-1.03,0.41s-0.82-0.04-1.3-0.21l-1.47-0.58L414.22,228.63z M414.93,224.75
		l1.45,0.56l-3.33,8.76l-1.43-0.56L414.93,224.75z M414.98,230.25l1.45,0.25l-0.23,4.79l-1.59-0.62L414.98,230.25z M420.84,227.11
		l1.13,0.52l-0.48,6.6l-0.27,0.15l2.6-5.94l1.32,0.58l-3.73,8.59l-1.15-0.52l0.36-6.27l0.25-0.15l-2.45,5.62l-1.32-0.58
		L420.84,227.11z M423.73,238.8l-1.43-0.71l4.13-8.39l1.43,0.71L423.73,238.8z M429.54,239.59l1.47-0.52l1.13,3.65l-1.47,0.54
		L429.54,239.59z M428.97,241.75c-0.44-0.25-0.77-0.54-0.99-0.87c-0.21-0.31-0.33-0.68-0.34-1.04c0-0.39,0.11-0.77,0.34-1.18
		l2.49-4.52c0.23-0.41,0.5-0.69,0.82-0.89s0.69-0.29,1.07-0.27c0.4,0.04,0.8,0.17,1.24,0.41c0.44,0.25,0.77,0.54,0.99,0.87
		c0.23,0.33,0.34,0.68,0.34,1.06c0,0.37-0.11,0.77-0.33,1.18l-2.51,4.5c-0.21,0.41-0.5,0.69-0.8,0.91
		c-0.33,0.19-0.69,0.27-1.09,0.25C429.83,242.14,429.41,242,428.97,241.75L428.97,241.75z M429.75,240.36
		c0.13,0.08,0.27,0.12,0.4,0.12c0.13,0,0.27-0.04,0.36-0.12c0.11-0.08,0.21-0.19,0.29-0.33l2.32-4.15c0.08-0.15,0.11-0.29,0.13-0.42
		c0-0.14-0.04-0.27-0.11-0.39c-0.06-0.1-0.17-0.19-0.31-0.29c-0.15-0.08-0.29-0.12-0.42-0.12c-0.11,0-0.25,0.04-0.36,0.12
		c-0.1,0.08-0.19,0.19-0.29,0.33l-2.3,4.15c-0.08,0.15-0.11,0.31-0.13,0.42c0,0.14,0.02,0.27,0.1,0.39
		C429.51,240.19,429.6,240.27,429.75,240.36L429.75,240.36z M438.54,236.54l0.94,0.58l-3.04,9.13l-1.32-0.83l2.2-5.85l-4.25,4.55
		l-1.34-0.83L438.54,236.54z M434.56,241.6l2.14,1.35l-0.78,1.27l-2.14-1.35L434.56,241.6z M440.62,244.92l-2.05,2.95l-1.3-0.91
		l2.05-2.95l1.84-5.75l1.36,0.96l-1.49,3.69l2.89-2.72l1.34,0.96L440.62,244.92z M446.74,243.32l1.24,0.98l-5.18,6.79l-1.26-0.98
		L446.74,243.32z M446.02,241.75l3.67,2.88l-0.94,1.22l-3.67-2.88L446.02,241.75z M451.53,246.21l0.84,0.73l-4.36,8.57l-1.19-1.02
		l3.04-5.46l-4.88,3.88l-1.19-1.02L451.53,246.21z M446.84,250.61l1.93,1.66l-0.98,1.14l-1.91-1.66L446.84,250.61z M456.92,252.19
		l1.15,1.1l-5.85,6.23l-1.15-1.08L456.92,252.19z M456.35,250.57l3.37,3.22l-1.03,1.12l-3.39-3.24L456.35,250.57z M461.32,255.61
		l0.78,0.81l-5.18,8.09l-1.09-1.14l3.58-5.11l-5.24,3.36l-1.09-1.14L461.32,255.61z M456.23,259.52l1.76,1.85l-1.07,1.02l-1.76-1.83
		L456.23,259.52z M461.3,264.25l-2.7,2.35l-1.03-1.22l2.7-2.35l3.2-5.09l1.07,1.25l-2.33,3.2l3.44-1.91l1.09,1.27L461.3,264.25z
		 M464.54,268.3l-2.81,2.22l-0.98-1.27l2.81-2.2l3.44-4.94l1.01,1.31l-2.49,3.09l3.54-1.74l1.01,1.31L464.54,268.3z M464.21,274.05
		c-0.29-0.42-0.48-0.83-0.54-1.22s-0.02-0.75,0.15-1.1c0.15-0.35,0.42-0.66,0.8-0.93l4.19-2.95c0.36-0.27,0.75-0.41,1.13-0.44
		c0.36-0.04,0.73,0.04,1.07,0.23s0.65,0.5,0.94,0.91c0.29,0.42,0.48,0.83,0.54,1.22s0.02,0.75-0.15,1.1
		c-0.15,0.35-0.42,0.66-0.8,0.93l-4.19,2.95c-0.36,0.27-0.75,0.41-1.13,0.44c-0.36,0.04-0.73-0.04-1.07-0.23
		C464.81,274.77,464.48,274.46,464.21,274.05L464.21,274.05z M465.49,273.13c0.1,0.14,0.21,0.23,0.33,0.29
		c0.11,0.06,0.25,0.08,0.38,0.06c0.13-0.02,0.27-0.08,0.4-0.17l3.86-2.72c0.13-0.1,0.23-0.21,0.29-0.33
		c0.08-0.12,0.1-0.25,0.08-0.37c-0.02-0.14-0.06-0.27-0.15-0.41c-0.1-0.14-0.21-0.23-0.33-0.29c-0.11-0.06-0.23-0.08-0.36-0.06
		s-0.27,0.08-0.4,0.17l-3.86,2.72c-0.13,0.1-0.25,0.21-0.31,0.33c-0.06,0.12-0.1,0.25-0.08,0.39
		C465.36,272.86,465.42,272.99,465.49,273.13L465.49,273.13z M471.23,274.46l0.88,1.45c0.08,0.12,0.15,0.19,0.25,0.25
		c0.1,0.06,0.21,0.1,0.31,0.08c0.11,0,0.21-0.04,0.33-0.1l0.88-0.56c0.11-0.08,0.21-0.17,0.27-0.27c0.06-0.1,0.08-0.19,0.08-0.31
		c-0.02-0.12-0.06-0.23-0.13-0.35l-0.88-1.43l1.28-0.81l0.84,1.33c0.27,0.44,0.42,0.85,0.48,1.23c0.04,0.41-0.02,0.75-0.19,1.08
		c-0.15,0.33-0.44,0.62-0.8,0.85l-0.92,0.6c-0.38,0.23-0.77,0.37-1.15,0.39c-0.38,0.02-0.73-0.1-1.07-0.31
		c-0.33-0.21-0.63-0.52-0.9-0.95l-0.82-1.35L471.23,274.46z M474.1,271.8l0.84,1.33l-7.88,4.98l-0.82-1.33L474.1,271.8z
		 M470.87,276.23l1.01,1.08l-3.02,3.69l-0.9-1.47L470.87,276.23z M477.49,277.26l0.77,1.39l-8.09,4.57l-0.78-1.39L477.49,277.26z
		 M471.02,281.66l1.65,2.95l-1.34,0.73l-1.63-2.93L471.02,281.66z M480.93,283.61l0.5,1l-7.35,6.16l-0.69-1.41l4.92-3.82l-5.99,1.64
		l-0.69-1.41L480.93,283.61z M474.93,285.81l1.11,2.3l-1.32,0.66l-1.13-2.28L474.93,285.81z M475,292.98
		c-0.19-0.44-0.27-0.87-0.25-1.25c0.04-0.41,0.17-0.75,0.4-1.06c0.25-0.31,0.59-0.56,1.03-0.75l0.46-0.21l0.63,1.47l-0.46,0.19
		c-0.21,0.1-0.36,0.23-0.42,0.41c-0.08,0.17-0.06,0.39,0.04,0.6c0.08,0.21,0.21,0.35,0.38,0.41c0.17,0.08,0.36,0.06,0.57-0.04
		l0.75-0.33c0.15-0.06,0.27-0.17,0.34-0.31c0.08-0.14,0.13-0.29,0.15-0.48c0.02-0.17,0.04-0.41,0.06-0.69c0-0.02,0-0.04,0-0.06
		s0.02-0.04,0.02-0.06v-0.08c0.02-0.41,0.08-0.75,0.15-1.04c0.08-0.31,0.21-0.6,0.44-0.87c0.21-0.27,0.54-0.5,0.96-0.68l0.44-0.19
		c0.44-0.19,0.84-0.27,1.22-0.25c0.38,0.04,0.73,0.17,1.03,0.42c0.29,0.25,0.54,0.6,0.73,1.04c0.19,0.44,0.27,0.85,0.25,1.23
		s-0.17,0.73-0.4,1.04c-0.25,0.31-0.59,0.56-1.03,0.75l-0.48,0.19l-0.65-1.45l0.5-0.21c0.21-0.1,0.36-0.23,0.44-0.39
		c0.06-0.17,0.06-0.35-0.02-0.56c-0.1-0.21-0.23-0.35-0.38-0.42c-0.17-0.06-0.34-0.06-0.54,0.04l-0.57,0.25
		c-0.15,0.06-0.27,0.17-0.36,0.31c-0.08,0.14-0.13,0.27-0.15,0.44c-0.02,0.15-0.04,0.39-0.06,0.66c0,0.06,0,0.12-0.02,0.17
		c0,0.04,0,0.1,0,0.15c0,0.02,0,0.02,0,0.04v0.02c-0.04,0.41-0.08,0.73-0.15,1c-0.06,0.27-0.19,0.52-0.38,0.79
		c-0.21,0.25-0.52,0.46-0.94,0.66l-0.71,0.31c-0.44,0.19-0.86,0.27-1.24,0.25c-0.38-0.04-0.73-0.17-1.03-0.42
		S475.19,293.43,475,292.98L475,292.98z M486.16,295.38l0.55,1.49l-8.69,3.3l-0.57-1.49L486.16,295.38z M485.16,292.69l0.55,1.51
		l-8.71,3.28l-0.55-1.49L485.16,292.69z M481.7,294.82l1.11,2.93l-1.4,0.54l-1.09-2.95L481.7,294.82z M487.94,300.34l0.52,1.62
		l-5.84,2.84l6.37-1.14l0.52,1.62l-9.38,1.22l-0.52-1.64L487.94,300.34z M490.06,307.44l0.29,1.08l-8.42,4.59l-0.4-1.54l5.57-2.76
		l-6.18,0.42l-0.4-1.54L490.06,307.44z M483.73,308.4l0.65,2.47l-1.43,0.39l-0.65-2.47L483.73,308.4z M482.94,318.47
		c-0.08-0.44-0.04-0.87,0.08-1.22c0.13-0.37,0.36-0.68,0.67-0.89c0.33-0.23,0.73-0.41,1.21-0.48l6.95-1.14l0.27,1.58l-7,1.16
		c-0.21,0.04-0.38,0.12-0.48,0.25c-0.11,0.14-0.15,0.29-0.11,0.48c0.04,0.19,0.11,0.35,0.27,0.44c0.13,0.1,0.31,0.12,0.54,0.08
		l7-1.16l0.25,1.58l-6.95,1.16c-0.48,0.08-0.92,0.06-1.28-0.06c-0.38-0.14-0.69-0.33-0.92-0.64
		C483.17,319.32,483.02,318.94,482.94,318.47L482.94,318.47z M492.87,320.5l0.17,1.6l-9.22,1.06l-0.19-1.58L492.87,320.5z
		 M485.22,322.06l0.38,3.34l-1.51,0.19l-0.38-3.36L485.22,322.06z M493.7,327.68l0.08,1.12l-9.13,2.86l-0.1-1.58l5.99-1.62
		l-6.16-0.79l-0.1-1.58L493.7,327.68z M487.31,327.39l0.17,2.55l-1.49,0.1l-0.15-2.55L487.31,327.39z M490.25,332.96l0.02,1.68
		c0,0.14,0.04,0.25,0.1,0.37c0.04,0.1,0.11,0.17,0.21,0.21c0.1,0.06,0.19,0.08,0.33,0.08l1.03-0.02c0.13,0,0.27-0.04,0.36-0.08
		c0.1-0.06,0.17-0.14,0.23-0.23c0.06-0.12,0.08-0.23,0.08-0.37l-0.04-1.7l1.53-0.02l0.02,1.6c0.02,0.5-0.06,0.93-0.21,1.29
		c-0.17,0.37-0.4,0.64-0.71,0.83c-0.33,0.19-0.71,0.31-1.15,0.31l-1.07,0.02c-0.46,0-0.86-0.08-1.19-0.27
		c-0.33-0.17-0.57-0.44-0.77-0.81c-0.17-0.35-0.27-0.77-0.27-1.27l-0.04-1.6L490.25,332.96z M494.08,332.17l0.04,1.56l-9.3,0.17
		l-0.04-1.56L494.08,332.17z M489.05,334.28l0.31,1.47l-4.48,1.56l-0.04-1.7L489.05,334.28z M494.23,338.58l-0.02,1.25l-6.28,2.03
		l-0.23-0.19l6.43,0.19l-0.04,1.47l-9.28-0.29l0.04-1.25l5.91-2.01l0.25,0.17l-6.1-0.19l0.04-1.45L494.23,338.58z M484.74,345.66
		l0.04-1.6l9.3,0.27l-0.06,1.6L484.74,345.66z M493.89,347.4l-0.1,1.25l-6.35,1.72l-0.23-0.19l6.43,0.5l-0.11,1.45l-9.26-0.73
		l0.11-1.25l5.99-1.72l0.23,0.19l-6.07-0.48l0.1-1.47L493.89,347.4z M488.47,357.8l-2.76-0.35c-0.48-0.06-0.88-0.19-1.21-0.42
		c-0.33-0.23-0.55-0.52-0.71-0.89c-0.13-0.37-0.17-0.79-0.11-1.27c0.06-0.5,0.21-0.91,0.42-1.23c0.23-0.33,0.52-0.56,0.88-0.69
		c0.36-0.15,0.77-0.19,1.24-0.14l4.78,0.62c0.5,0.06,0.9,0.19,1.24,0.42c0.33,0.23,0.57,0.52,0.71,0.91
		c0.15,0.37,0.19,0.79,0.13,1.27c-0.06,0.46-0.21,0.87-0.42,1.18c-0.23,0.31-0.54,0.54-0.9,0.68s-0.78,0.17-1.28,0.12l-0.71-0.1
		l0.21-1.62l0.71,0.08c0.15,0.02,0.29,0.02,0.4-0.02c0.11-0.04,0.19-0.1,0.27-0.19c0.08-0.1,0.11-0.19,0.13-0.33s0-0.27-0.06-0.37
		c-0.06-0.12-0.13-0.21-0.25-0.29c-0.1-0.06-0.25-0.12-0.4-0.14l-4.78-0.6c-0.11-0.02-0.25,0-0.34,0.04
		c-0.11,0.04-0.19,0.12-0.27,0.23c-0.06,0.1-0.11,0.23-0.13,0.37c-0.02,0.15,0,0.29,0.04,0.42c0.04,0.12,0.11,0.21,0.21,0.29
		c0.1,0.06,0.23,0.12,0.36,0.14l1.26,0.15l0.1-0.77l1.51,0.17L488.47,357.8z M490.85,367.52l-0.33,1.47l-9.07-2.06l0.31-1.39
		l6.33,1.45h-0.42l-4.04-2.32l0.17-0.77l4.5-0.39l0.5,0.25l-6.33-1.43l0.33-1.43l9.07,2.06l-0.34,1.49l-5.26,0.41L490.85,367.52z
		 M489.64,372.12l-0.31,1.08l-9.53-0.33l0.4-1.52l6.2,0.46l-5.55-2.8l0.4-1.54L489.64,372.12z M483.69,369.72l-0.67,2.45l-1.43-0.39
		l0.67-2.47L483.69,369.72z M488.34,376.42l-0.48,1.52l-8.84-2.91l0.5-1.52L488.34,376.42z M480.76,374.61l-1.05,3.2l-1.43-0.46
		l1.03-3.22L480.76,374.61z M485.95,383.23l-0.38,1.04l-9.47-1.25l0.55-1.47l6.12,1.04l-5.26-3.32l0.55-1.47L485.95,383.23z
		 M480.27,380.28l-0.9,2.37l-1.4-0.52l0.9-2.39L480.27,380.28z M479.17,386.53l3.85,3.7l-0.71,1.64l-5.72-6.48L479.17,386.53z
		 M484.26,387.4l-0.63,1.47l-8.51-3.76l0.63-1.47L484.26,387.4z M479.65,387.38l0.44,1.39l-6.41-0.37l0.69-1.62L479.65,387.38z
		 M480.93,394.52l-0.5,1l-9.3-2.16l0.71-1.43l5.97,1.64l-4.92-3.8l0.71-1.43L480.93,394.52z M475.56,391.03l-1.13,2.28l-1.32-0.66
		l1.11-2.3L475.56,391.03z M469.8,395.35c0.25-0.42,0.54-0.73,0.86-0.96c0.33-0.21,0.69-0.33,1.07-0.31c0.38,0,0.78,0.12,1.21,0.37
		l0.44,0.23l-0.77,1.41l-0.42-0.25c-0.21-0.12-0.4-0.15-0.59-0.1c-0.17,0.04-0.33,0.17-0.44,0.39c-0.11,0.19-0.13,0.39-0.08,0.56
		c0.06,0.17,0.17,0.33,0.38,0.44l0.71,0.39c0.13,0.1,0.29,0.12,0.46,0.1c0.15-0.02,0.31-0.08,0.46-0.15
		c0.15-0.1,0.34-0.23,0.59-0.39c0.02-0.02,0.02-0.02,0.04-0.04c0.02,0,0.04-0.02,0.04-0.02l0.08-0.06c0.33-0.21,0.63-0.39,0.92-0.5
		c0.29-0.14,0.59-0.17,0.96-0.17c0.34,0.02,0.71,0.14,1.11,0.35l0.42,0.25c0.42,0.23,0.73,0.5,0.94,0.83
		c0.19,0.33,0.31,0.68,0.29,1.08c-0.02,0.39-0.13,0.79-0.38,1.23c-0.23,0.41-0.5,0.71-0.82,0.93c-0.33,0.21-0.67,0.31-1.07,0.31
		c-0.38-0.02-0.78-0.14-1.21-0.37l-0.46-0.27l0.77-1.39l0.46,0.25c0.21,0.12,0.4,0.15,0.57,0.12c0.17-0.04,0.33-0.15,0.42-0.35
		c0.11-0.19,0.15-0.39,0.1-0.56c-0.04-0.17-0.15-0.31-0.34-0.41l-0.54-0.31c-0.15-0.08-0.31-0.12-0.46-0.1
		c-0.15,0.02-0.31,0.06-0.46,0.14c-0.13,0.08-0.33,0.19-0.55,0.35c-0.04,0.04-0.08,0.08-0.13,0.1c-0.04,0.04-0.1,0.06-0.13,0.1
		l-0.02,0.02c-0.02,0-0.02,0-0.02,0.02c-0.34,0.21-0.63,0.37-0.88,0.48s-0.54,0.17-0.86,0.15c-0.33,0-0.69-0.12-1.07-0.33
		l-0.69-0.39c-0.42-0.23-0.73-0.52-0.94-0.85c-0.21-0.33-0.31-0.69-0.31-1.08C469.46,396.2,469.57,395.77,469.8,395.35L469.8,395.35
		z M467.41,399.5l0.84-1.35l7.86,4.98l-0.82,1.35L467.41,399.5z M474.53,405.75l-0.71,1.02l-6.33-1.76l-0.11-0.29l5.3,3.7l-0.84,1.2
		l-7.61-5.34l0.73-1.04l6.03,1.58l0.11,0.29l-5.01-3.51l0.84-1.22L474.53,405.75z M462.68,406.39l0.98-1.25l7.35,5.73l-0.98,1.25
		L462.68,406.39z M458.87,411.08c0.31-0.39,0.65-0.66,1.01-0.81s0.73-0.19,1.11-0.14c0.36,0.08,0.73,0.27,1.07,0.56l3.88,3.36
		c0.34,0.29,0.59,0.64,0.71,0.98c0.13,0.37,0.15,0.73,0.06,1.12c-0.11,0.39-0.33,0.77-0.65,1.14c-0.33,0.39-0.67,0.66-1.03,0.83
		c-0.34,0.15-0.73,0.19-1.09,0.14c-0.36-0.08-0.73-0.27-1.07-0.56l-3.88-3.36c-0.36-0.31-0.59-0.64-0.73-0.98
		c-0.11-0.37-0.13-0.73-0.04-1.12C458.34,411.85,458.55,411.46,458.87,411.08L458.87,411.08z M460.06,412.12
		c-0.1,0.14-0.17,0.25-0.19,0.39s-0.02,0.25,0.04,0.39c0.06,0.12,0.13,0.23,0.27,0.35l3.58,3.09c0.13,0.12,0.27,0.19,0.38,0.21
		c0.13,0.04,0.27,0.04,0.38-0.02c0.13-0.04,0.25-0.14,0.34-0.25c0.11-0.14,0.17-0.25,0.21-0.39c0.02-0.14,0-0.25-0.04-0.39
		c-0.06-0.12-0.15-0.23-0.27-0.35l-3.58-3.09c-0.13-0.12-0.27-0.19-0.4-0.21c-0.11-0.04-0.25-0.04-0.38,0.02
		C460.29,411.9,460.18,412,460.06,412.12L460.06,412.12z M455.26,415.2c0.33-0.35,0.69-0.6,1.05-0.73c0.38-0.12,0.75-0.14,1.13-0.04
		c0.38,0.12,0.75,0.33,1.09,0.66l0.36,0.35l-1.07,1.16l-0.36-0.33c-0.17-0.17-0.36-0.25-0.55-0.25c-0.17,0-0.34,0.1-0.52,0.27
		c-0.15,0.15-0.23,0.35-0.21,0.52c0,0.19,0.1,0.37,0.25,0.52l0.59,0.56c0.13,0.12,0.27,0.19,0.42,0.19c0.15,0.02,0.33,0.02,0.5-0.04
		c0.17-0.04,0.38-0.12,0.67-0.23c0.02,0,0.02,0,0.04,0c0.02-0.02,0.04-0.02,0.06-0.02l0.08-0.04c0.36-0.14,0.71-0.23,1.01-0.27
		c0.31-0.04,0.61-0.02,0.96,0.08c0.34,0.1,0.67,0.31,0.99,0.62l0.36,0.33c0.34,0.33,0.57,0.68,0.69,1.04
		c0.11,0.37,0.13,0.75,0.02,1.12c-0.1,0.39-0.33,0.75-0.65,1.1c-0.33,0.35-0.67,0.58-1.03,0.71c-0.36,0.12-0.75,0.14-1.11,0.02
		c-0.38-0.1-0.73-0.33-1.09-0.66l-0.38-0.37l1.07-1.16l0.4,0.37c0.17,0.15,0.34,0.25,0.52,0.25c0.19,0,0.34-0.08,0.5-0.23
		c0.17-0.17,0.25-0.35,0.23-0.52c0-0.17-0.08-0.33-0.23-0.48l-0.44-0.42c-0.13-0.14-0.27-0.19-0.44-0.21
		c-0.15-0.04-0.31-0.02-0.46,0.02c-0.15,0.04-0.36,0.12-0.63,0.21c-0.04,0.02-0.1,0.04-0.15,0.06c-0.04,0-0.1,0.02-0.15,0.06
		c-0.02,0-0.02,0-0.02,0c-0.02,0-0.02,0-0.04,0c-0.36,0.14-0.69,0.21-0.96,0.27c-0.27,0.06-0.55,0.02-0.88-0.06
		c-0.31-0.1-0.63-0.29-0.96-0.6l-0.57-0.54c-0.34-0.33-0.57-0.69-0.71-1.06c-0.11-0.37-0.13-0.73-0.02-1.12
		C454.7,415.92,454.93,415.55,455.26,415.2L455.26,415.2z M457.44,426.47l-1.15,1.1l-6.41-6.77l1.15-1.1L457.44,426.47z
		 M459.49,424.51l-1.13,1.1l-6.43-6.77l1.15-1.1L459.49,424.51z M456.22,422.13l-2.26,2.16l-1.03-1.08l2.26-2.16L456.22,422.13z
		 M448.01,422.61l1.15-1.1l6.41,6.77l-1.15,1.1L448.01,422.61z M450.25,427.88l-1.28,1.1c-0.1,0.1-0.17,0.17-0.21,0.29
		c-0.04,0.1-0.06,0.21-0.04,0.31c0.02,0.1,0.08,0.21,0.15,0.31l0.69,0.79c0.1,0.1,0.19,0.17,0.29,0.21
		c0.11,0.06,0.21,0.06,0.33,0.04c0.11-0.04,0.23-0.1,0.33-0.17l1.26-1.1l0.99,1.16l-1.19,1.04c-0.38,0.33-0.77,0.54-1.15,0.66
		c-0.36,0.12-0.73,0.1-1.07-0.02c-0.36-0.12-0.67-0.35-0.98-0.68l-0.71-0.83c-0.29-0.35-0.48-0.71-0.55-1.08
		c-0.06-0.37-0.02-0.75,0.13-1.12c0.17-0.37,0.44-0.71,0.8-1.04l1.21-1.02L450.25,427.88z M453.29,430.35l-1.17,1.02l-6.08-7.1
		l1.19-1.02L453.29,430.35z M448.47,427.79l-0.92,1.18l-4.06-2.47l1.28-1.12L448.47,427.79z M441.52,427.96l1.26-0.96l5.7,7.39
		l-1.24,0.98L441.52,427.96z M438.92,429.85c0.38-0.29,0.78-0.46,1.17-0.5c0.4-0.06,0.77,0,1.11,0.17c0.34,0.17,0.67,0.46,0.94,0.87
		l0.29,0.41l-1.28,0.93l-0.29-0.41c-0.13-0.19-0.29-0.31-0.48-0.35c-0.19-0.04-0.38,0.02-0.57,0.15c-0.17,0.14-0.29,0.29-0.31,0.46
		c-0.04,0.19,0.02,0.37,0.15,0.56l0.46,0.68c0.1,0.14,0.23,0.23,0.36,0.29c0.15,0.04,0.33,0.06,0.5,0.06
		c0.17-0.02,0.4-0.06,0.69-0.1c0.02,0,0.04,0,0.06,0s0.04,0,0.06-0.02h0.1c0.38-0.06,0.73-0.08,1.03-0.08
		c0.31,0.02,0.61,0.12,0.92,0.27c0.33,0.17,0.61,0.44,0.86,0.81l0.29,0.41c0.27,0.39,0.42,0.77,0.46,1.16
		c0.06,0.39-0.02,0.75-0.19,1.1c-0.17,0.35-0.46,0.66-0.86,0.95c-0.38,0.27-0.78,0.42-1.17,0.48c-0.38,0.06-0.75-0.02-1.07-0.19
		c-0.34-0.17-0.67-0.46-0.94-0.87l-0.31-0.42l1.28-0.95l0.31,0.44c0.13,0.19,0.31,0.31,0.48,0.37c0.17,0.04,0.34-0.02,0.54-0.14
		c0.17-0.14,0.29-0.29,0.33-0.46c0.04-0.17-0.02-0.35-0.13-0.52l-0.36-0.5c-0.1-0.15-0.21-0.25-0.36-0.31s-0.31-0.08-0.48-0.06
		c-0.15,0-0.38,0.02-0.65,0.08c-0.04,0-0.1,0.02-0.15,0.02s-0.11,0.02-0.17,0.02h-0.02c-0.02,0-0.02,0-0.02,0
		c-0.4,0.06-0.75,0.08-1.01,0.08c-0.27-0.02-0.54-0.1-0.84-0.23c-0.29-0.15-0.55-0.42-0.82-0.79l-0.44-0.64
		c-0.29-0.41-0.44-0.79-0.5-1.18c-0.04-0.39,0.02-0.77,0.21-1.12C438.23,430.43,438.52,430.12,438.92,429.85L438.92,429.85z
		 M438.82,441.35l-1.34,0.85l-4.94-7.93l1.34-0.85L438.82,441.35z M441.23,439.85l-1.34,0.83l-4.94-7.93l1.34-0.85L441.23,439.85z
		 M438.48,436.85l-2.62,1.66l-0.8-1.27l2.64-1.66L438.48,436.85z M428.07,436.97l1.38-0.79l4.53,8.18l-1.38,0.77L428.07,436.97z
		 M431.34,445.94l-1.11,0.56l-4.71-4.61l0.04-0.31l2.87,5.83l-1.3,0.64l-4.11-8.37l1.13-0.58l4.52,4.32l-0.02,0.31l-2.72-5.52
		l1.3-0.64L431.34,445.94z M419.98,441.04c0.44-0.19,0.86-0.27,1.26-0.25c0.38,0.04,0.73,0.17,1.03,0.41
		c0.31,0.25,0.55,0.6,0.75,1.04l0.21,0.46l-1.45,0.64l-0.19-0.46c-0.1-0.21-0.23-0.35-0.4-0.42c-0.17-0.08-0.36-0.06-0.59,0.04
		c-0.21,0.08-0.34,0.21-0.4,0.39s-0.06,0.37,0.04,0.58l0.33,0.75c0.08,0.15,0.17,0.27,0.31,0.35c0.15,0.08,0.31,0.14,0.48,0.15
		c0.17,0.04,0.4,0.06,0.69,0.06c0.02,0,0.04,0,0.06,0.02c0.02,0,0.04,0,0.06,0h0.1c0.38,0.02,0.73,0.08,1.01,0.15
		c0.31,0.08,0.59,0.23,0.86,0.44c0.27,0.23,0.5,0.54,0.69,0.96l0.19,0.44c0.17,0.44,0.27,0.85,0.23,1.23
		c-0.04,0.39-0.17,0.73-0.42,1.04c-0.25,0.31-0.59,0.56-1.03,0.75c-0.44,0.17-0.84,0.27-1.22,0.23c-0.38-0.02-0.73-0.15-1.03-0.41
		c-0.29-0.25-0.54-0.6-0.73-1.04l-0.21-0.48l1.43-0.66l0.21,0.5c0.1,0.21,0.23,0.37,0.38,0.44c0.17,0.08,0.36,0.06,0.55-0.02
		c0.21-0.1,0.34-0.23,0.42-0.39c0.06-0.17,0.06-0.35-0.04-0.54l-0.23-0.58c-0.08-0.15-0.17-0.27-0.33-0.37
		c-0.13-0.08-0.27-0.14-0.44-0.15c-0.15-0.02-0.38-0.04-0.65-0.06c-0.06,0-0.1,0-0.15,0c-0.06-0.02-0.11-0.02-0.17-0.02
		c-0.02,0-0.02,0-0.02,0c-0.02,0-0.02,0-0.04,0c-0.4-0.04-0.73-0.08-0.99-0.14c-0.25-0.08-0.52-0.19-0.77-0.41
		c-0.27-0.21-0.48-0.52-0.67-0.95l-0.31-0.71c-0.19-0.44-0.27-0.85-0.23-1.25c0.02-0.39,0.15-0.73,0.4-1.04
		C419.19,441.49,419.54,441.23,419.98,441.04L419.98,441.04z M419.06,450.94l-1.49,0.58l-2.98-8.05l1.47-0.56L419.06,450.94z
		 M420.76,451.13l-4.36,1.66l-0.54-1.43l4.36-1.66L420.76,451.13z M411.06,444.8l1.49-0.56l3.27,8.78l-1.49,0.56L411.06,444.8z
		 M411.39,453.78l-1.51,0.48l-2.6-8.18l1.51-0.48L411.39,453.78z M413.07,454.05l-4.42,1.43l-0.46-1.45l4.42-1.43L413.07,454.05z
		 M403.27,447.2c0.44-0.14,0.86-0.14,1.22-0.04c0.38,0.08,0.69,0.29,0.96,0.58c0.25,0.29,0.44,0.68,0.57,1.16l1.82,6.87l-1.55,0.41
		l-1.82-6.91c-0.06-0.21-0.15-0.37-0.31-0.46c-0.13-0.1-0.29-0.12-0.48-0.06c-0.19,0.04-0.34,0.15-0.42,0.29
		c-0.08,0.15-0.08,0.35-0.02,0.56l1.84,6.91l-1.55,0.42l-1.82-6.87c-0.11-0.48-0.13-0.91-0.06-1.29c0.08-0.39,0.25-0.71,0.54-0.98
		C402.47,447.51,402.83,447.31,403.27,447.2L403.27,447.2z M401.07,456.73l-1.55,0.35l-1.8-8.39l1.55-0.33L401.07,456.73z
		 M402.74,457.17l-4.55,1l-0.33-1.51l4.55-0.98L402.74,457.17z M394.07,449.47l1.55-0.33l1.95,9.15l-1.55,0.35L394.07,449.47z"/>
</g>
</svg>
